<?plantuml 1.2026.1?><svg xmlns="http://www.w3.org/2000/svg" xmlns:xlink="http://www.w3.org/1999/xlink" contentStyleType="text/css" data-diagram-type="CLASS" height="301px" preserveAspectRatio="none" style="width:308px;height:301px;background:#FFFFFF;" version="1.1" viewBox="0 0 308 301" width="308px" zoomAndPan="magnify"><defs/><g><!--class Order--><g class="entity" data-qualified-name="Order" data-source-line="1" id="ent0002"><rect fill="#F1F1F1" height="113.1875" rx="2.5" ry="2.5" style="stroke:#181818;stroke-width:0.5;" width="208.5537" x="56.28" y="7"/><ellipse cx="136.2912" cy="23" fill="#ADD1B2" rx="11" ry="11" style="stroke:#181818;stroke-width:1;"/><path d="M139.26,28.6406 Q138.6819,28.9375 138.0412,29.0781 Q137.4006,29.2344 136.6975,29.2344 Q134.1975,29.2344 132.8694,27.5938 Q131.5569,25.9375 131.5569,22.8125 Q131.5569,19.6875 132.8694,18.0313 Q134.1975,16.375 136.6975,16.375 Q137.4006,16.375 138.0412,16.5313 Q138.6975,16.6875 139.26,16.9844 L139.26,19.7031 Q138.635,19.125 138.0412,18.8594 Q137.4475,18.5781 136.8225,18.5781 Q135.4787,18.5781 134.7912,19.6563 Q134.1037,20.7188 134.1037,22.8125 Q134.1037,24.9063 134.7912,25.9844 Q135.4787,27.0469 136.8225,27.0469 Q137.4475,27.0469 138.0412,26.7813 Q138.635,26.5 139.26,25.9219 L139.26,28.6406 Z " fill="#000000"/><text fill="#000000" font-family="sans-serif" font-size="14" lengthAdjust="spacing" textLength="40.0313" x="156.7912" y="27.8467">Order</text><line style="stroke:#181818;stroke-width:0.5;" x1="57.28" x2="263.8337" y1="39" y2="39"/><g data-visibility-modifier="PRIVATE_FIELD"><rect fill="none" height="6" style="stroke:#C82930;stroke-width:1;" width="6" x="64.28" y="49.6484"/></g><text fill="#000000" font-family="sans-serif" font-size="14" lengthAdjust="spacing" textLength="57.3467" x="76.28" y="55.9951">id: UUID</text><g data-visibility-modifier="PRIVATE_FIELD"><rect fill="none" height="6" style="stroke:#C82930;stroke-width:1;" width="6" x="64.28" y="65.9453"/></g><text fill="#000000" font-family="sans-serif" font-size="14" lengthAdjust="spacing" textLength="182.5537" x="76.28" y="72.292">createdAt: LocalDateTime</text><g data-visibility-modifier="PRIVATE_FIELD"><rect fill="none" height="6" style="stroke:#C82930;stroke-width:1;" width="6" x="64.28" y="82.2422"/></g><text fill="#000000" font-family="sans-serif" font-size="14" lengthAdjust="spacing" textLength="136.8281" x="76.28" y="88.5889">status: OrderStatus</text><line style="stroke:#181818;stroke-width:0.5;" x1="57.28" x2="263.8337" y1="95.8906" y2="95.8906"/><g data-visibility-modifier="PUBLIC_METHOD"><ellipse cx="67.28" cy="109.5391" fill="#84BE84" rx="3" ry="3" style="stroke:#038048;stroke-width:1;"/></g><text fill="#000000" font-family="sans-serif" font-size="14" lengthAdjust="spacing" textLength="132.4668" x="76.28" y="112.8857">markAsPaid(): void</text></g><!--class OrderLine--><g class="entity" data-qualified-name="OrderLine" data-source-line="8" id="ent0003"><rect fill="#F1F1F1" height="96.8906" rx="2.5" ry="2.5" style="stroke:#181818;stroke-width:0.5;" width="143.1064" x="7" y="197.19"/><ellipse cx="40.8547" cy="213.19" fill="#ADD1B2" rx="11" ry="11" style="stroke:#181818;stroke-width:1;"/><path d="M43.8235,218.8306 Q43.2454,219.1275 42.6047,219.2681 Q41.9641,219.4244 41.261,219.4244 Q38.761,219.4244 37.4329,217.7838 Q36.1204,216.1275 36.1204,213.0025 Q36.1204,209.8775 37.4329,208.2213 Q38.761,206.565 41.261,206.565 Q41.9641,206.565 42.6047,206.7213 Q43.261,206.8775 43.8235,207.1744 L43.8235,209.8931 Q43.1985,209.315 42.6047,209.0494 Q42.011,208.7681 41.386,208.7681 Q40.0422,208.7681 39.3547,209.8463 Q38.6672,210.9088 38.6672,213.0025 Q38.6672,215.0963 39.3547,216.1744 Q40.0422,217.2369 41.386,217.2369 Q42.011,217.2369 42.6047,216.9713 Q43.1985,216.69 43.8235,216.1119 L43.8235,218.8306 Z " fill="#000000"/><text fill="#000000" font-family="sans-serif" font-size="14" lengthAdjust="spacing" textLength="69.207" x="59.0447" y="218.0367">OrderLine</text><line style="stroke:#181818;stroke-width:0.5;" x1="8" x2="149.1064" y1="229.19" y2="229.19"/><g data-visibility-modifier="PRIVATE_FIELD"><rect fill="none" height="6" style="stroke:#C82930;stroke-width:1;" width="6" x="15" y="239.8384"/></g><text fill="#000000" font-family="sans-serif" font-size="14" lengthAdjust="spacing" textLength="111.7402" x="27" y="246.1851">productId: UUID</text><g data-visibility-modifier="PRIVATE_FIELD"><rect fill="none" height="6" style="stroke:#C82930;stroke-width:1;" width="6" x="15" y="256.1353"/></g><text fill="#000000" font-family="sans-serif" font-size="14" lengthAdjust="spacing" textLength="85.7842" x="27" y="262.482">quantity: int</text><g data-visibility-modifier="PRIVATE_FIELD"><rect fill="none" height="6" style="stroke:#C82930;stroke-width:1;" width="6" x="15" y="272.4322"/></g><text fill="#000000" font-family="sans-serif" font-size="14" lengthAdjust="spacing" textLength="117.1064" x="27" y="278.7789">unitPrice: Money</text><line style="stroke:#181818;stroke-width:0.5;" x1="8" x2="149.1064" y1="286.0806" y2="286.0806"/></g><!--class Customer--><g class="entity" data-qualified-name="Customer" data-source-line="14" id="ent0004"><rect fill="#F1F1F1" height="80.5938" rx="2.5" ry="2.5" style="stroke:#181818;stroke-width:0.5;" width="116.6514" x="185.23" y="205.34"/><ellipse cx="207.7214" cy="221.34" fill="#ADD1B2" rx="11" ry="11" style="stroke:#181818;stroke-width:1;"/><path d="M210.6901,226.9806 Q210.112,227.2775 209.4714,227.4181 Q208.8307,227.5744 208.1276,227.5744 Q205.6276,227.5744 204.2995,225.9337 Q202.987,224.2775 202.987,221.1525 Q202.987,218.0275 204.2995,216.3712 Q205.6276,214.715 208.1276,214.715 Q208.8307,214.715 209.4714,214.8712 Q210.1276,215.0275 210.6901,215.3244 L210.6901,218.0431 Q210.0651,217.465 209.4714,217.1994 Q208.8776,216.9181 208.2526,216.9181 Q206.9089,216.9181 206.2214,217.9962 Q205.5339,219.0587 205.5339,221.1525 Q205.5339,223.2462 206.2214,224.3244 Q206.9089,225.3869 208.2526,225.3869 Q208.8776,225.3869 209.4714,225.1212 Q210.0651,224.84 210.6901,224.2619 L210.6901,226.9806 Z " fill="#000000"/><text fill="#000000" font-family="sans-serif" font-size="14" lengthAdjust="spacing" textLength="68.0039" x="223.3861" y="226.1867">Customer</text><line style="stroke:#181818;stroke-width:0.5;" x1="186.23" x2="300.8814" y1="237.34" y2="237.34"/><g data-visibility-modifier="PRIVATE_FIELD"><rect fill="none" height="6" style="stroke:#C82930;stroke-width:1;" width="6" x="193.23" y="247.9884"/></g><text fill="#000000" font-family="sans-serif" font-size="14" lengthAdjust="spacing" textLength="57.3467" x="205.23" y="254.3351">id: UUID</text><g data-visibility-modifier="PRIVATE_FIELD"><rect fill="none" height="6" style="stroke:#C82930;stroke-width:1;" width="6" x="193.23" y="264.2853"/></g><text fill="#000000" font-family="sans-serif" font-size="14" lengthAdjust="spacing" textLength="90.6514" x="205.23" y="270.632">name: String</text><line style="stroke:#181818;stroke-width:0.5;" x1="186.23" x2="300.8814" y1="277.9338" y2="277.9338"/></g><!--reverse link Order to OrderLine--><g class="link" data-entity-1="ent0002" data-entity-2="ent0003" data-link-type="composition" data-source-line="19" id="lnk5"><path codeLine="19" d="M130.088,131.4915 C118.948,155.9615 110.98,173.44 100.3,196.88" fill="none" id="Order-backto-OrderLine" style="stroke:#181818;stroke-width:1;"/><polygon fill="#181818" points="135.06,120.57,128.9335,124.3734,130.088,131.4915,136.2145,127.6881,135.06,120.57" style="stroke:#181818;stroke-width:1;"/><text fill="#000000" font-family="sans-serif" font-size="13" lengthAdjust="spacing" textLength="55.0278" x="120.55" y="163.2569">contains</text><text fill="#000000" font-family="sans-serif" font-size="13" lengthAdjust="spacing" textLength="8.271" x="123.6651" y="140.0996">1</text><text fill="#000000" font-family="sans-serif" font-size="13" lengthAdjust="spacing" textLength="6.5" x="96.9714" y="186.0453">*</text></g><!--link Order to Customer--><g class="link" data-entity-1="ent0002" data-entity-2="ent0004" data-link-type="dependency" data-source-line="20" id="lnk6"><path codeLine="20" d="M186.36,120.57 C198.97,147.93 211.3379,174.7512 222.7579,199.5212" fill="none" id="Order-to-Customer" style="stroke:#181818;stroke-width:1;"/><polygon fill="#181818" points="225.27,204.97,225.1343,195.1221,223.1766,200.4293,217.8693,198.4716,225.27,204.97" style="stroke:#181818;stroke-width:1;"/><text fill="#000000" font-family="sans-serif" font-size="13" lengthAdjust="spacing" textLength="59.8394" x="207.55" y="163.2569">placedBy</text><text fill="#000000" font-family="sans-serif" font-size="13" lengthAdjust="spacing" textLength="8.271" x="213.7398" y="194.3709">1</text></g><?plantuml-src RKz12i8m4Bpt5KjFMid1Qmw2sejGiQ0-O4c2BBORJJP24VzkQqKzUDkPdPsPDGt62BjWNO1x1g38QZWUD-Kmc-1Gd5sAXieRRCeU7QXrmouAIefwFDs_G4_FMWpdPQoHx6IguUR9PeyiCz-KYjYDIPVWRJAo-Gcy9cGXwJGGoq0a9ga36QTXwzbrNxDrYkBRVwqPsrw-bq1y6lJZS_ayXq8fo8lyfuW6urcGEBvbIYrUqe-zXak3njbLzmG0?></g></svg>