<?plantuml 1.2026.1?><svg xmlns="http://www.w3.org/2000/svg" xmlns:xlink="http://www.w3.org/1999/xlink" contentStyleType="text/css" data-diagram-type="CLASS" height="532px" preserveAspectRatio="none" style="width:265px;height:532px;background:#FFFFFF;" version="1.1" viewBox="0 0 265 532" width="265px" zoomAndPan="magnify"><defs/><g><!--class Warehouse--><g class="entity" data-qualified-name="Warehouse" data-source-line="1" id="ent0002"><rect fill="#F1F1F1" height="96.8906" rx="2.5" ry="2.5" style="stroke:#181818;stroke-width:0.5;" width="251.3535" x="7" y="7"/><ellipse cx="88.9219" cy="23" fill="#ADD1B2" rx="11" ry="11" style="stroke:#181818;stroke-width:1;"/><path d="M91.8906,28.6406 Q91.3125,28.9375 90.6719,29.0781 Q90.0313,29.2344 89.3281,29.2344 Q86.8281,29.2344 85.5,27.5938 Q84.1875,25.9375 84.1875,22.8125 Q84.1875,19.6875 85.5,18.0313 Q86.8281,16.375 89.3281,16.375 Q90.0313,16.375 90.6719,16.5313 Q91.3281,16.6875 91.8906,16.9844 L91.8906,19.7031 Q91.2656,19.125 90.6719,18.8594 Q90.0781,18.5781 89.4531,18.5781 Q88.1094,18.5781 87.4219,19.6563 Q86.7344,20.7188 86.7344,22.8125 Q86.7344,24.9063 87.4219,25.9844 Q88.1094,27.0469 89.4531,27.0469 Q90.0781,27.0469 90.6719,26.7813 Q91.2656,26.5 91.8906,25.9219 L91.8906,28.6406 Z " fill="#000000"/><text fill="#000000" font-family="sans-serif" font-size="14" lengthAdjust="spacing" textLength="79.0098" x="109.4219" y="27.8467">Warehouse</text><line style="stroke:#181818;stroke-width:0.5;" x1="8" x2="257.3535" y1="39" y2="39"/><g data-visibility-modifier="PUBLIC_FIELD"><ellipse cx="18" cy="52.6484" fill="none" rx="3" ry="3" style="stroke:#038048;stroke-width:1;"/></g><text fill="#000000" font-family="sans-serif" font-size="14" lengthAdjust="spacing" textLength="61.7969" x="27" y="55.9951">id : UUID</text><g data-visibility-modifier="PUBLIC_FIELD"><ellipse cx="18" cy="68.9453" fill="none" rx="3" ry="3" style="stroke:#038048;stroke-width:1;"/></g><text fill="#000000" font-family="sans-serif" font-size="14" lengthAdjust="spacing" textLength="146.7881" x="27" y="72.292">locationCode : String</text><g data-visibility-modifier="PRIVATE_FIELD"><rect fill="none" height="6" style="stroke:#C82930;stroke-width:1;" width="6" x="15" y="82.2422"/></g><text fill="#000000" font-family="sans-serif" font-size="14" lengthAdjust="spacing" textLength="225.3535" x="27" y="88.5889">partOfWarehouse : StorageBin[]</text><line style="stroke:#181818;stroke-width:0.5;" x1="8" x2="257.3535" y1="95.8906" y2="95.8906"/></g><!--class StorageBin--><g class="entity" data-qualified-name="StorageBin" data-source-line="6" id="ent0003"><rect fill="#F1F1F1" height="96.8906" rx="2.5" ry="2.5" style="stroke:#181818;stroke-width:0.5;" width="175.584" x="44.88" y="180.9"/><ellipse cx="89.8502" cy="196.9" fill="#ADD1B2" rx="11" ry="11" style="stroke:#181818;stroke-width:1;"/><path d="M92.819,202.5406 Q92.2408,202.8375 91.6002,202.9781 Q90.9596,203.1344 90.2565,203.1344 Q87.7565,203.1344 86.4283,201.4938 Q85.1158,199.8375 85.1158,196.7125 Q85.1158,193.5875 86.4283,191.9313 Q87.7565,190.275 90.2565,190.275 Q90.9596,190.275 91.6002,190.4313 Q92.2565,190.5875 92.819,190.8844 L92.819,193.6031 Q92.194,193.025 91.6002,192.7594 Q91.0065,192.4781 90.3815,192.4781 Q89.0377,192.4781 88.3502,193.5563 Q87.6627,194.6188 87.6627,196.7125 Q87.6627,198.8063 88.3502,199.8844 Q89.0377,200.9469 90.3815,200.9469 Q91.0065,200.9469 91.6002,200.6813 Q92.194,200.4 92.819,199.8219 L92.819,202.5406 Z " fill="#000000"/><text fill="#000000" font-family="sans-serif" font-size="14" lengthAdjust="spacing" textLength="77.1436" x="110.3502" y="201.7467">StorageBin</text><line style="stroke:#181818;stroke-width:0.5;" x1="45.88" x2="219.464" y1="212.9" y2="212.9"/><g data-visibility-modifier="PUBLIC_FIELD"><ellipse cx="55.88" cy="226.5484" fill="none" rx="3" ry="3" style="stroke:#038048;stroke-width:1;"/></g><text fill="#000000" font-family="sans-serif" font-size="14" lengthAdjust="spacing" textLength="61.7969" x="64.88" y="229.8951">id : UUID</text><g data-visibility-modifier="PUBLIC_FIELD"><ellipse cx="55.88" cy="242.8453" fill="none" rx="3" ry="3" style="stroke:#038048;stroke-width:1;"/></g><text fill="#000000" font-family="sans-serif" font-size="14" lengthAdjust="spacing" textLength="89.2568" x="64.88" y="246.192">label : String</text><g data-visibility-modifier="PRIVATE_FIELD"><rect fill="none" height="6" style="stroke:#C82930;stroke-width:1;" width="6" x="52.88" y="256.1422"/></g><text fill="#000000" font-family="sans-serif" font-size="14" lengthAdjust="spacing" textLength="149.584" x="64.88" y="262.4889">packedInBin : Pallet[]</text><line style="stroke:#181818;stroke-width:0.5;" x1="45.88" x2="219.464" y1="269.7906" y2="269.7906"/></g><!--class Pallet--><g class="entity" data-qualified-name="Pallet" data-source-line="11" id="ent0004"><rect fill="#F1F1F1" height="80.5938" rx="2.5" ry="2.5" style="stroke:#181818;stroke-width:0.5;" width="138.3828" x="63.49" y="354.79"/><ellipse cx="108.9797" cy="370.79" fill="#ADD1B2" rx="11" ry="11" style="stroke:#181818;stroke-width:1;"/><path d="M111.9485,376.4306 Q111.3704,376.7275 110.7297,376.8681 Q110.0891,377.0244 109.386,377.0244 Q106.886,377.0244 105.5579,375.3837 Q104.2454,373.7275 104.2454,370.6025 Q104.2454,367.4775 105.5579,365.8212 Q106.886,364.165 109.386,364.165 Q110.0891,364.165 110.7297,364.3212 Q111.386,364.4775 111.9485,364.7744 L111.9485,367.4931 Q111.3235,366.915 110.7297,366.6494 Q110.136,366.3681 109.511,366.3681 Q108.1672,366.3681 107.4797,367.4462 Q106.7922,368.5087 106.7922,370.6025 Q106.7922,372.6962 107.4797,373.7744 Q108.1672,374.8369 109.511,374.8369 Q110.136,374.8369 110.7297,374.5712 Q111.3235,374.29 111.9485,373.7119 L111.9485,376.4306 Z " fill="#000000"/><text fill="#000000" font-family="sans-serif" font-size="14" lengthAdjust="spacing" textLength="38.9033" x="129.4797" y="375.6367">Pallet</text><line style="stroke:#181818;stroke-width:0.5;" x1="64.49" x2="200.8728" y1="386.79" y2="386.79"/><g data-visibility-modifier="PUBLIC_FIELD"><ellipse cx="74.49" cy="400.4384" fill="none" rx="3" ry="3" style="stroke:#038048;stroke-width:1;"/></g><text fill="#000000" font-family="sans-serif" font-size="14" lengthAdjust="spacing" textLength="61.7969" x="83.49" y="403.7851">id : UUID</text><g data-visibility-modifier="PUBLIC_FIELD"><ellipse cx="74.49" cy="416.7353" fill="none" rx="3" ry="3" style="stroke:#038048;stroke-width:1;"/></g><text fill="#000000" font-family="sans-serif" font-size="14" lengthAdjust="spacing" textLength="112.3828" x="83.49" y="420.082">barcode : String</text><line style="stroke:#181818;stroke-width:0.5;" x1="64.49" x2="200.8728" y1="427.3837" y2="427.3837"/></g><!--link Warehouse to StorageBin--><g class="link" data-entity-1="ent0002" data-entity-2="ent0003" data-link-type="aggregation" data-source-line="15" id="lnk5"><path codeLine="15" d="M132.68,116.33 C132.68,140.07 132.68,150.67 132.68,174.42" fill="none" id="Warehouse-StorageBin" style="stroke:#181818;stroke-width:1;"/><polygon fill="none" points="132.68,104.33,128.68,110.33,132.68,116.33,136.68,110.33,132.68,104.33" style="stroke:#181818;stroke-width:1;"/><polygon fill="#181818" points="132.68,180.42,136.68,171.42,132.68,175.42,128.68,171.42,132.68,180.42" style="stroke:#181818;stroke-width:1;"/><text fill="#000000" font-family="sans-serif" font-size="13" lengthAdjust="spacing" textLength="114.8354" x="133.68" y="146.9669">partOfWarehouse</text></g><!--link StorageBin to Pallet--><g class="link" data-entity-1="ent0003" data-entity-2="ent0004" data-link-type="composition" data-source-line="16" id="lnk6"><path codeLine="16" d="M132.68,290.14 C132.68,314.4 132.68,325.52 132.68,348.51" fill="none" id="StorageBin-Pallet" style="stroke:#181818;stroke-width:1;"/><polygon fill="#181818" points="132.68,278.14,128.68,284.14,132.68,290.14,136.68,284.14,132.68,278.14" style="stroke:#181818;stroke-width:1;"/><polygon fill="#181818" points="132.68,354.51,136.68,345.51,132.68,349.51,128.68,345.51,132.68,354.51" style="stroke:#181818;stroke-width:1;"/><text fill="#000000" font-family="sans-serif" font-size="13" lengthAdjust="spacing" textLength="79.9868" x="133.68" y="320.8569">packedInBin</text></g><g class="legend" data-source-line="17"><rect fill="#DDDDDD" height="58.8906" rx="7.5" ry="7.5" style="stroke:#000000;stroke-width:1;" width="131.4678" x="107.8857" y="453.3837"/><text fill="#000000" font-family="sans-serif" font-size="14" font-weight="bold" lengthAdjust="spacing" textLength="73.9307" x="112.8857" y="471.3789">Relations</text><text fill="#000000" font-family="sans-serif" font-size="14" lengthAdjust="spacing" textLength="121.4678" x="112.8857" y="487.6757">&#9670;&#8594; : composition</text><text fill="#000000" font-family="sans-serif" font-size="14" lengthAdjust="spacing" textLength="121.1191" x="112.8857" y="503.9726">&#9671;&#8594; : aggregation</text></g><?plantuml-src RP2z2i8m58NtFCMTbU9UIWTrSL8KSH27s_GQWp6H94xIjUuklfzFOjAAhUAOy_FTGxX2vs23bWxcuWYk360eIqXXlPvDuqCPZbuQFJ4b1NdbhTGY6CaPhP_lkshqZ4L1OwctErOnth0xyHyS2r8_L7waSgPZFeK5AaM-Hsk5FwG2BVzQMB5kcacIl3yaXP_nh6SEOlXz9mO_UvWYGRe4AyN1XvjPaIz9DP_Zib6H1-dvg9_rFTIuEPsDaz5hv5ihen2MH5DX0TK2Nm00?></g></svg>