<?plantuml 1.2026.1?><svg xmlns="http://www.w3.org/2000/svg" xmlns:xlink="http://www.w3.org/1999/xlink" contentStyleType="text/css" data-diagram-type="CLASS" height="483px" preserveAspectRatio="none" style="width:502px;height:483px;background:#FFFFFF;" version="1.1" viewBox="0 0 502 483" width="502px" zoomAndPan="magnify"><defs/><g><!--class Order--><g class="entity" data-qualified-name="Order" data-source-line="1" id="ent0002"><rect fill="#F1F1F1" height="80.5938" rx="2.5" ry="2.5" style="stroke:#181818;stroke-width:0.5;" width="175.2148" x="152.0511" y="132.29"/><ellipse cx="215.3929" cy="148.29" fill="#ADD1B2" rx="11" ry="11" style="stroke:#181818;stroke-width:1;"/><path d="M218.3616,153.9306 Q217.7835,154.2275 217.1429,154.3681 Q216.5022,154.5244 215.7991,154.5244 Q213.2991,154.5244 211.971,152.8838 Q210.6585,151.2275 210.6585,148.1025 Q210.6585,144.9775 211.971,143.3213 Q213.2991,141.665 215.7991,141.665 Q216.5022,141.665 217.1429,141.8213 Q217.7991,141.9775 218.3616,142.2744 L218.3616,144.9931 Q217.7366,144.415 217.1429,144.1494 Q216.5491,143.8681 215.9241,143.8681 Q214.5804,143.8681 213.8929,144.9463 Q213.2054,146.0088 213.2054,148.1025 Q213.2054,150.1963 213.8929,151.2744 Q214.5804,152.3369 215.9241,152.3369 Q216.5491,152.3369 217.1429,152.0713 Q217.7366,151.79 218.3616,151.2119 L218.3616,153.9306 Z " fill="#000000"/><text fill="#000000" font-family="sans-serif" font-size="14" lengthAdjust="spacing" textLength="40.0313" x="235.8929" y="153.1367">Order</text><line style="stroke:#181818;stroke-width:0.5;" x1="153.0511" x2="326.2659" y1="164.29" y2="164.29"/><g data-visibility-modifier="PUBLIC_FIELD"><ellipse cx="163.0511" cy="177.9384" fill="none" rx="3" ry="3" style="stroke:#038048;stroke-width:1;"/></g><text fill="#000000" font-family="sans-serif" font-size="14" lengthAdjust="spacing" textLength="149.2148" x="172.0511" y="181.2851">orderNumber : String</text><g data-visibility-modifier="PUBLIC_FIELD"><ellipse cx="163.0511" cy="194.2353" fill="none" rx="3" ry="3" style="stroke:#038048;stroke-width:1;"/></g><text fill="#000000" font-family="sans-serif" font-size="14" lengthAdjust="spacing" textLength="92.0459" x="172.0511" y="197.582">total : Money</text><line style="stroke:#181818;stroke-width:0.5;" x1="153.0511" x2="326.2659" y1="204.8838" y2="204.8838"/></g><!--class Customer--><g class="entity" data-qualified-name="Customer" data-source-line="5" id="ent0003"><rect fill="#F1F1F1" height="64.2969" rx="2.5" ry="2.5" style="stroke:#181818;stroke-width:0.5;" width="121.1016" x="25.1111" y="298.03"/><ellipse cx="49.605" cy="314.03" fill="#ADD1B2" rx="11" ry="11" style="stroke:#181818;stroke-width:1;"/><path d="M52.5738,319.6706 Q51.9956,319.9675 51.355,320.1081 Q50.7144,320.2644 50.0113,320.2644 Q47.5113,320.2644 46.1831,318.6238 Q44.8706,316.9675 44.8706,313.8425 Q44.8706,310.7175 46.1831,309.0613 Q47.5113,307.405 50.0113,307.405 Q50.7144,307.405 51.355,307.5613 Q52.0113,307.7175 52.5738,308.0144 L52.5738,310.7331 Q51.9488,310.155 51.355,309.8894 Q50.7613,309.6081 50.1363,309.6081 Q48.7925,309.6081 48.105,310.6863 Q47.4175,311.7488 47.4175,313.8425 Q47.4175,315.9363 48.105,317.0144 Q48.7925,318.0769 50.1363,318.0769 Q50.7613,318.0769 51.355,317.8113 Q51.9488,317.53 52.5738,316.9519 L52.5738,319.6706 Z " fill="#000000"/><text fill="#000000" font-family="sans-serif" font-size="14" lengthAdjust="spacing" textLength="68.0039" x="65.7148" y="318.8767">Customer</text><line style="stroke:#181818;stroke-width:0.5;" x1="26.1111" x2="145.2126" y1="330.03" y2="330.03"/><g data-visibility-modifier="PUBLIC_FIELD"><ellipse cx="36.1111" cy="343.6784" fill="none" rx="3" ry="3" style="stroke:#038048;stroke-width:1;"/></g><text fill="#000000" font-family="sans-serif" font-size="14" lengthAdjust="spacing" textLength="95.1016" x="45.1111" y="347.0251">name : String</text><line style="stroke:#181818;stroke-width:0.5;" x1="26.1111" x2="145.2126" y1="354.3269" y2="354.3269"/></g><!--class OrderLine--><g class="entity" data-qualified-name="OrderLine" data-source-line="8" id="ent0004"><rect fill="#F1F1F1" height="64.2969" rx="2.5" ry="2.5" style="stroke:#181818;stroke-width:0.5;" width="116.2344" x="181.5411" y="298.03"/><ellipse cx="203.3034" cy="314.03" fill="#ADD1B2" rx="11" ry="11" style="stroke:#181818;stroke-width:1;"/><path d="M206.2721,319.6706 Q205.694,319.9675 205.0534,320.1081 Q204.4127,320.2644 203.7096,320.2644 Q201.2096,320.2644 199.8815,318.6238 Q198.569,316.9675 198.569,313.8425 Q198.569,310.7175 199.8815,309.0613 Q201.2096,307.405 203.7096,307.405 Q204.4127,307.405 205.0534,307.5613 Q205.7096,307.7175 206.2721,308.0144 L206.2721,310.7331 Q205.6471,310.155 205.0534,309.8894 Q204.4596,309.6081 203.8346,309.6081 Q202.4909,309.6081 201.8034,310.6863 Q201.1159,311.7488 201.1159,313.8425 Q201.1159,315.9363 201.8034,317.0144 Q202.4909,318.0769 203.8346,318.0769 Q204.4596,318.0769 205.0534,317.8113 Q205.6471,317.53 206.2721,316.9519 L206.2721,319.6706 Z " fill="#000000"/><text fill="#000000" font-family="sans-serif" font-size="14" lengthAdjust="spacing" textLength="69.207" x="218.8061" y="318.8767">OrderLine</text><line style="stroke:#181818;stroke-width:0.5;" x1="182.5411" x2="296.7754" y1="330.03" y2="330.03"/><g data-visibility-modifier="PUBLIC_FIELD"><ellipse cx="192.5411" cy="343.6784" fill="none" rx="3" ry="3" style="stroke:#038048;stroke-width:1;"/></g><text fill="#000000" font-family="sans-serif" font-size="14" lengthAdjust="spacing" textLength="90.2344" x="201.5411" y="347.0251">quantity : int</text><line style="stroke:#181818;stroke-width:0.5;" x1="182.5411" x2="296.7754" y1="354.3269" y2="354.3269"/></g><!--class SpecialOrder--><g class="entity" data-qualified-name="SpecialOrder" data-source-line="11" id="ent0005"><rect fill="#F1F1F1" height="64.2969" rx="2.5" ry="2.5" style="stroke:#181818;stroke-width:0.5;" width="176.8076" x="151.2611" y="7"/><ellipse cx="190.7113" cy="23" fill="#ADD1B2" rx="11" ry="11" style="stroke:#181818;stroke-width:1;"/><path d="M193.6801,28.6406 Q193.102,28.9375 192.4613,29.0781 Q191.8207,29.2344 191.1176,29.2344 Q188.6176,29.2344 187.2895,27.5938 Q185.977,25.9375 185.977,22.8125 Q185.977,19.6875 187.2895,18.0313 Q188.6176,16.375 191.1176,16.375 Q191.8207,16.375 192.4613,16.5313 Q193.1176,16.6875 193.6801,16.9844 L193.6801,19.7031 Q193.0551,19.125 192.4613,18.8594 Q191.8676,18.5781 191.2426,18.5781 Q189.8988,18.5781 189.2113,19.6563 Q188.5238,20.7188 188.5238,22.8125 Q188.5238,24.9063 189.2113,25.9844 Q189.8988,27.0469 191.2426,27.0469 Q191.8676,27.0469 192.4613,26.7813 Q193.0551,26.5 193.6801,25.9219 L193.6801,28.6406 Z " fill="#000000"/><text fill="#000000" font-family="sans-serif" font-size="14" lengthAdjust="spacing" textLength="90.4736" x="210.1447" y="27.8467">SpecialOrder</text><line style="stroke:#181818;stroke-width:0.5;" x1="152.2611" x2="327.0687" y1="39" y2="39"/><g data-visibility-modifier="PUBLIC_FIELD"><ellipse cx="162.2611" cy="52.6484" fill="none" rx="3" ry="3" style="stroke:#038048;stroke-width:1;"/></g><text fill="#000000" font-family="sans-serif" font-size="14" lengthAdjust="spacing" textLength="150.8076" x="171.2611" y="55.9951">discountCode : String</text><line style="stroke:#181818;stroke-width:0.5;" x1="152.2611" x2="327.0687" y1="63.2969" y2="63.2969"/></g><!--class Money--><g class="entity" data-qualified-name="Money" data-source-line="14" id="ent0006"><rect fill="#F1F1F1" height="80.5938" rx="2.5" ry="2.5" style="stroke:#181818;stroke-width:0.5;" width="150.7217" x="332.3011" y="289.89"/><ellipse cx="380.2039" cy="305.89" fill="#ADD1B2" rx="11" ry="11" style="stroke:#181818;stroke-width:1;"/><path d="M383.1726,311.5306 Q382.5945,311.8275 381.9539,311.9681 Q381.3133,312.1244 380.6101,312.1244 Q378.1101,312.1244 376.782,310.4838 Q375.4695,308.8275 375.4695,305.7025 Q375.4695,302.5775 376.782,300.9213 Q378.1101,299.265 380.6101,299.265 Q381.3133,299.265 381.9539,299.4213 Q382.6101,299.5775 383.1726,299.8744 L383.1726,302.5931 Q382.5476,302.015 381.9539,301.7494 Q381.3601,301.4681 380.7351,301.4681 Q379.3914,301.4681 378.7039,302.5463 Q378.0164,303.6088 378.0164,305.7025 Q378.0164,307.7963 378.7039,308.8744 Q379.3914,309.9369 380.7351,309.9369 Q381.3601,309.9369 381.9539,309.6713 Q382.5476,309.39 383.1726,308.8119 L383.1726,311.5306 Z " fill="#000000"/><text fill="#000000" font-family="sans-serif" font-size="14" lengthAdjust="spacing" textLength="46.416" x="400.7039" y="310.7367">Money</text><line style="stroke:#181818;stroke-width:0.5;" x1="333.3011" x2="482.0227" y1="321.89" y2="321.89"/><g data-visibility-modifier="PUBLIC_FIELD"><ellipse cx="343.3011" cy="335.5384" fill="none" rx="3" ry="3" style="stroke:#038048;stroke-width:1;"/></g><text fill="#000000" font-family="sans-serif" font-size="14" lengthAdjust="spacing" textLength="124.7217" x="352.3011" y="338.8851">amount : Decimal</text><g data-visibility-modifier="PUBLIC_FIELD"><ellipse cx="343.3011" cy="351.8353" fill="none" rx="3" ry="3" style="stroke:#038048;stroke-width:1;"/></g><text fill="#000000" font-family="sans-serif" font-size="14" lengthAdjust="spacing" textLength="116.9492" x="352.3011" y="355.182">currency : String</text><line style="stroke:#181818;stroke-width:0.5;" x1="333.3011" x2="482.0227" y1="362.4838" y2="362.4838"/></g><!--link Order to OrderLine--><g class="link" data-entity-1="ent0002" data-entity-2="ent0004" data-link-type="dependency" data-source-line="18" id="lnk7"><path codeLine="18" d="M239.6611,213.25 C239.6611,239.46 239.6611,267.32 239.6611,291.68" fill="none" id="Order-to-OrderLine" style="stroke:#181818;stroke-width:1;"/><polygon fill="#181818" points="239.6611,297.68,243.6611,288.68,239.6611,292.68,235.6611,288.68,239.6611,297.68" style="stroke:#181818;stroke-width:1;"/><text fill="#000000" font-family="sans-serif" font-size="13" lengthAdjust="spacing" textLength="30.2339" x="240.6611" y="255.9569">lines</text></g><!--link Order to Customer--><g class="link" data-entity-1="ent0002" data-entity-2="ent0003" data-link-type="dependency" data-source-line="19" id="lnk8"><path codeLine="19" d="M198.5211,213.31 C188.6811,222.93 178.2511,233.23 168.6611,242.89 C150.7911,260.88 135.2537,276.9897 119.5337,293.4597" fill="none" id="Order-to-Customer" style="stroke:#181818;stroke-width:1;"/><polygon fill="#181818" points="115.3911,297.8,124.4986,294.0513,118.8433,294.1831,118.7115,288.5278,115.3911,297.8" style="stroke:#181818;stroke-width:1;"/><text fill="#000000" font-family="sans-serif" font-size="13" lengthAdjust="spacing" textLength="61.2168" x="169.6611" y="255.9569">customer</text></g><!--link Order to Money--><g class="link" data-entity-1="ent0002" data-entity-2="ent0006" data-link-type="dependency" data-source-line="20" id="lnk9"><path codeLine="20" d="M282.4911,213.25 C307.7611,236.66 335.2495,262.1125 360.5095,285.5125" fill="none" id="Order-to-Money" style="stroke:#181818;stroke-width:1;"/><polygon fill="#181818" points="364.9111,289.59,361.027,280.5394,361.2431,286.1921,355.5903,286.4082,364.9111,289.59" style="stroke:#181818;stroke-width:1;"/><text fill="#000000" font-family="sans-serif" font-size="13" lengthAdjust="spacing" textLength="29.7261" x="330.6611" y="255.9569">total</text></g><!--link SpecialOrder to Order--><g class="link" data-entity-1="ent0005" data-entity-2="ent0002" data-link-type="dependency" data-source-line="21" id="lnk10"><path codeLine="21" d="M239.6611,71.63 C239.6611,89.7 239.6611,106.58 239.6611,125.88" fill="none" id="SpecialOrder-to-Order" style="stroke:#181818;stroke-width:1;"/><polygon fill="#181818" points="239.6611,131.88,243.6611,122.88,239.6611,126.88,235.6611,122.88,239.6611,131.88" style="stroke:#181818;stroke-width:1;"/></g><g class="legend" data-source-line="22"><rect fill="#DDDDDD" height="75.1875" rx="7.5" ry="7.5" style="stroke:#000000;stroke-width:1;" width="470.1338" x="12" y="388.4838"/><text fill="#000000" font-family="sans-serif" font-size="14" font-weight="bold" lengthAdjust="spacing" textLength="109.2861" x="17" y="406.4789">Simpler mode</text><text fill="#000000" font-family="sans-serif" font-size="14" lengthAdjust="spacing" textLength="160.3027" x="17" y="422.7757">- removes id attributes</text><text fill="#000000" font-family="sans-serif" font-size="14" lengthAdjust="spacing" textLength="356.0771" x="17" y="439.0726">- maps aggregation/composition/inheritance to --&gt;</text><text fill="#000000" font-family="sans-serif" font-size="14" lengthAdjust="spacing" textLength="460.1338" x="17" y="455.3695">- hides custom stereotypes (for example Entity and Value Object)</text></g><?plantuml-src RP3DJiCm48JlUOezWb3LUrJrKhX1UuZ4VUCiwIB_17kDY13lpZgc9KYSl9gT6N-siPWIdE904JuRWBjGncDslGejT1BPZqMN86XLUGgUvkQhCKlma9C4TybwTFGRkdYMyaVsL4rl6Rsmp6faBrTNDv5Xj2kIWPC9sSiX3F-qBXpLYAxOr7Al5GvjqKoEaRoPry7QlTdiLqWjM3tIQdTzKWlcPrnjwxKjBD_H_86-5ZUMHl83H1xFeZ2xVj-ncwnwdBvbj-ttgcuWaWllb807G578FekIb8t3AG6EOwGHXOFVck2ca7YPsPyfig0tf1ZbsYLpva6xAZ8aeKX1vacbcvSGWJwm4C13_NjKl6UqcU3KlvAHsqQ1A_Ot?></g></svg>