<?plantuml 1.2026.1?><svg xmlns="http://www.w3.org/2000/svg" xmlns:xlink="http://www.w3.org/1999/xlink" contentStyleType="text/css" data-diagram-type="CLASS" height="410px" preserveAspectRatio="none" style="width:238px;height:410px;background:#FFFFFF;" version="1.1" viewBox="0 0 238 410" width="238px" zoomAndPan="magnify"><defs/><g><!--class Magazijn--><g class="entity" data-qualified-name="Magazijn" data-source-line="1" id="ent0002"><rect fill="#F1F1F1" height="84.2969" rx="2.5" ry="2.5" style="stroke:#181818;stroke-width:0.5;" width="148.6162" x="7" y="7"/><ellipse cx="46.521" cy="23" fill="#ADD1B2" rx="11" ry="11" style="stroke:#181818;stroke-width:1;"/><path d="M49.4898,28.6406 Q48.9117,28.9375 48.271,29.0781 Q47.6304,29.2344 46.9273,29.2344 Q44.4273,29.2344 43.0992,27.5938 Q41.7867,25.9375 41.7867,22.8125 Q41.7867,19.6875 43.0992,18.0313 Q44.4273,16.375 46.9273,16.375 Q47.6304,16.375 48.271,16.5313 Q48.9273,16.6875 49.4898,16.9844 L49.4898,19.7031 Q48.8648,19.125 48.271,18.8594 Q47.6773,18.5781 47.0523,18.5781 Q45.7085,18.5781 45.021,19.6563 Q44.3335,20.7188 44.3335,22.8125 Q44.3335,24.9063 45.021,25.9844 Q45.7085,27.0469 47.0523,27.0469 Q47.6773,27.0469 48.271,26.7813 Q48.8648,26.5 49.4898,25.9219 L49.4898,28.6406 Z " fill="#000000"/><text fill="#000000" font-family="sans-serif" font-size="14" lengthAdjust="spacing" textLength="62.125" x="65.9702" y="27.8467">Magazijn</text><line style="stroke:#181818;stroke-width:0.5;" x1="8" x2="154.6162" y1="39" y2="39"/><g data-visibility-modifier="PUBLIC_FIELD"><ellipse cx="18" cy="52.6484" fill="none" rx="3" ry="3" style="stroke:#038048;stroke-width:1;"/></g><text fill="#000000" font-family="sans-serif" font-size="14" lengthAdjust="spacing" textLength="122.6162" x="27" y="55.9951">locatieCode&#160;&#160;&#160;&#160;&#160;&#160;&#160;&#160;&#160;</text><text fill="#000000" font-family="sans-serif" font-size="1" lengthAdjust="spacing" textLength="0.3179" x="27" y="60.2251">&#160;</text><text fill="#000000" font-family="sans-serif" font-size="1" lengthAdjust="spacing" textLength="0.3179" x="27" y="70.2251">&#160;</text><line style="stroke:#181818;stroke-width:0.5;" x1="8" x2="154.6162" y1="83.2969" y2="83.2969"/></g><!--class OpslagVak--><g class="entity" data-qualified-name="OpslagVak" data-source-line="6" id="ent0003"><rect fill="#F1F1F1" height="84.2969" rx="2.5" ry="2.5" style="stroke:#181818;stroke-width:0.5;" width="106.8193" x="27.9" y="168.3"/><ellipse cx="42.9" cy="184.3" fill="#ADD1B2" rx="11" ry="11" style="stroke:#181818;stroke-width:1;"/><path d="M45.8688,189.9406 Q45.2906,190.2375 44.65,190.3781 Q44.0094,190.5344 43.3063,190.5344 Q40.8063,190.5344 39.4781,188.8937 Q38.1656,187.2375 38.1656,184.1125 Q38.1656,180.9875 39.4781,179.3312 Q40.8063,177.675 43.3063,177.675 Q44.0094,177.675 44.65,177.8312 Q45.3063,177.9875 45.8688,178.2844 L45.8688,181.0031 Q45.2438,180.425 44.65,180.1594 Q44.0563,179.8781 43.4313,179.8781 Q42.0875,179.8781 41.4,180.9562 Q40.7125,182.0187 40.7125,184.1125 Q40.7125,186.2062 41.4,187.2844 Q42.0875,188.3469 43.4313,188.3469 Q44.0563,188.3469 44.65,188.0812 Q45.2438,187.8 45.8688,187.2219 L45.8688,189.9406 Z " fill="#000000"/><text fill="#000000" font-family="sans-serif" font-size="14" lengthAdjust="spacing" textLength="74.8193" x="56.9" y="189.1467">OpslagVak</text><line style="stroke:#181818;stroke-width:0.5;" x1="28.9" x2="133.7193" y1="200.3" y2="200.3"/><g data-visibility-modifier="PUBLIC_FIELD"><ellipse cx="38.9" cy="213.9484" fill="none" rx="3" ry="3" style="stroke:#038048;stroke-width:1;"/></g><text fill="#000000" font-family="sans-serif" font-size="14" lengthAdjust="spacing" textLength="73.9102" x="47.9" y="217.2951">label&#160;&#160;&#160;&#160;&#160;&#160;&#160;&#160;&#160;</text><text fill="#000000" font-family="sans-serif" font-size="1" lengthAdjust="spacing" textLength="0.3179" x="47.9" y="221.5251">&#160;</text><text fill="#000000" font-family="sans-serif" font-size="1" lengthAdjust="spacing" textLength="0.3179" x="47.9" y="231.5251">&#160;</text><line style="stroke:#181818;stroke-width:0.5;" x1="28.9" x2="133.7193" y1="244.5969" y2="244.5969"/></g><!--class Pallet--><g class="entity" data-qualified-name="Pallet" data-source-line="11" id="ent0004"><rect fill="#F1F1F1" height="74.2969" rx="2.5" ry="2.5" style="stroke:#181818;stroke-width:0.5;" width="123.0361" x="19.79" y="329.59"/><ellipse cx="58.2498" cy="345.59" fill="#ADD1B2" rx="11" ry="11" style="stroke:#181818;stroke-width:1;"/><path d="M61.2185,351.2306 Q60.6404,351.5275 59.9998,351.6681 Q59.3591,351.8244 58.656,351.8244 Q56.156,351.8244 54.8279,350.1838 Q53.5154,348.5275 53.5154,345.4025 Q53.5154,342.2775 54.8279,340.6213 Q56.156,338.965 58.656,338.965 Q59.3591,338.965 59.9998,339.1213 Q60.656,339.2775 61.2185,339.5744 L61.2185,342.2931 Q60.5935,341.715 59.9998,341.4494 Q59.406,341.1681 58.781,341.1681 Q57.4373,341.1681 56.7498,342.2463 Q56.0623,343.3088 56.0623,345.4025 Q56.0623,347.4963 56.7498,348.5744 Q57.4373,349.6369 58.781,349.6369 Q59.406,349.6369 59.9998,349.3713 Q60.5935,349.09 61.2185,348.5119 L61.2185,351.2306 Z " fill="#000000"/><text fill="#000000" font-family="sans-serif" font-size="14" lengthAdjust="spacing" textLength="38.9033" x="77.463" y="350.4367">Pallet</text><line style="stroke:#181818;stroke-width:0.5;" x1="20.79" x2="141.8261" y1="361.59" y2="361.59"/><g data-visibility-modifier="PUBLIC_FIELD"><ellipse cx="30.79" cy="375.2384" fill="none" rx="3" ry="3" style="stroke:#038048;stroke-width:1;"/></g><text fill="#000000" font-family="sans-serif" font-size="14" lengthAdjust="spacing" textLength="97.0361" x="39.79" y="378.5851">barcode&#160;&#160;&#160;&#160;&#160;&#160;&#160;&#160;&#160;</text><text fill="#000000" font-family="sans-serif" font-size="1" lengthAdjust="spacing" textLength="0.3179" x="39.79" y="382.8151">&#160;</text><line style="stroke:#181818;stroke-width:0.5;" x1="20.79" x2="141.8261" y1="395.8869" y2="395.8869"/></g><!--link Magazijn to OpslagVak--><g class="link" data-entity-1="ent0002" data-entity-2="ent0003" data-link-type="dependency" data-source-line="15" id="lnk5"><path codeLine="15" d="M81.31,91.59 C81.31,115.09 81.31,138.42 81.31,161.94" fill="none" id="Magazijn-to-OpslagVak" style="stroke:#181818;stroke-width:1;"/><polygon fill="#181818" points="81.31,167.94,85.31,158.94,81.31,162.94,77.31,158.94,81.31,167.94" style="stroke:#181818;stroke-width:1;"/><text fill="#000000" font-family="sans-serif" font-size="13" lengthAdjust="spacing" textLength="148.4336" x="82.31" y="134.3669">onderdeelVanMagazijn</text></g><!--link OpslagVak to Pallet--><g class="link" data-entity-1="ent0003" data-entity-2="ent0004" data-link-type="dependency" data-source-line="16" id="lnk6"><path codeLine="16" d="M81.31,252.79 C81.31,276.63 81.31,300.32 81.31,323.28" fill="none" id="OpslagVak-to-Pallet" style="stroke:#181818;stroke-width:1;"/><polygon fill="#181818" points="81.31,329.28,85.31,320.28,81.31,324.28,77.31,320.28,81.31,329.28" style="stroke:#181818;stroke-width:1;"/><text fill="#000000" font-family="sans-serif" font-size="13" lengthAdjust="spacing" textLength="86.3408" x="82.31" y="295.6569">verpaktInVak</text></g><?plantuml-src Iyv9B2vMy4rCJwpApCfJgEPIKD3EoKzEBCbCTSvFIJsq01q25TWKPrQbMXdQATZeWrXss8HgkPB19liN5ESafeSbPaEDJanApQ7Oq834d9pK4eY9IOb5oKGxj9OBxbDTNJianrafvEUbf1QbfARcX2NcmHHn8HI0b4EjjL8eIoqgICmkySm3oW00?></g></svg>