<?plantuml 1.2026.1?><svg xmlns="http://www.w3.org/2000/svg" xmlns:xlink="http://www.w3.org/1999/xlink" contentStyleType="text/css" data-diagram-type="CLASS" height="401px" preserveAspectRatio="none" style="width:734px;height:401px;background:#FFFFFF;" version="1.1" viewBox="0 0 734 401" width="734px" zoomAndPan="magnify"><defs/><g><!--class PaymentPort--><g class="entity" data-qualified-name="PaymentPort" data-source-line="1" id="ent0002"><rect fill="#F1F1F1" height="48" rx="2.5" ry="2.5" style="stroke:#181818;stroke-width:0.5;" width="122.1729" x="480.79" y="330.45"/><ellipse cx="495.79" cy="346.45" fill="#B4A7E5" rx="11" ry="11" style="stroke:#181818;stroke-width:1;"/><path d="M491.7119,342.2156 L491.7119,340.0594 L499.1025,340.0594 L499.1025,342.2156 L496.6338,342.2156 L496.6338,350.2938 L499.1025,350.2938 L499.1025,352.45 L491.7119,352.45 L491.7119,350.2938 L494.1806,350.2938 L494.1806,342.2156 L491.7119,342.2156 Z " fill="#000000"/><text fill="#000000" font-family="sans-serif" font-size="14" font-style="italic" lengthAdjust="spacing" textLength="90.1729" x="509.79" y="351.2967">PaymentPort</text><line style="stroke:#181818;stroke-width:0.5;" x1="481.79" x2="601.9629" y1="362.45" y2="362.45"/><line style="stroke:#181818;stroke-width:0.5;" x1="481.79" x2="601.9629" y1="370.45" y2="370.45"/></g><!--class Order--><g class="entity" data-qualified-name="Order" data-source-line="3" id="ent0003"><rect fill="#F1F1F1" height="88.8594" rx="2.5" ry="2.5" style="stroke:#181818;stroke-width:0.5;" width="159.8682" x="184.94" y="148.3"/><ellipse cx="210.2113" cy="168.4328" fill="#ADD1B2" rx="11" ry="11" style="stroke:#181818;stroke-width:1;"/><path d="M213.1801,174.0734 Q212.602,174.3703 211.9613,174.5109 Q211.3207,174.6672 210.6176,174.6672 Q208.1176,174.6672 206.7895,173.0266 Q205.477,171.3703 205.477,168.2453 Q205.477,165.1203 206.7895,163.4641 Q208.1176,161.8078 210.6176,161.8078 Q211.3207,161.8078 211.9613,161.9641 Q212.6176,162.1203 213.1801,162.4172 L213.1801,165.1359 Q212.5551,164.5578 211.9613,164.2922 Q211.3676,164.0109 210.7426,164.0109 Q209.3988,164.0109 208.7113,165.0891 Q208.0238,166.1516 208.0238,168.2453 Q208.0238,170.3391 208.7113,171.4172 Q209.3988,172.4797 210.7426,172.4797 Q211.3676,172.4797 211.9613,172.2141 Q212.5551,171.9328 213.1801,171.3547 L213.1801,174.0734 Z " fill="#000000"/><text fill="#000000" font-family="sans-serif" font-size="12" font-style="italic" lengthAdjust="spacing" textLength="109.043" x="224.4939" y="164.4387">&#171;Aggregate Root&#187;</text><text fill="#000000" font-family="sans-serif" font-size="14" lengthAdjust="spacing" textLength="40.0313" x="258.9997" y="180.2639">Order</text><line style="stroke:#181818;stroke-width:0.5;" x1="185.94" x2="343.8082" y1="188.5656" y2="188.5656"/><g data-visibility-modifier="PUBLIC_FIELD"><ellipse cx="195.94" cy="202.2141" fill="none" rx="3" ry="3" style="stroke:#038048;stroke-width:1;"/></g><text fill="#000000" font-family="sans-serif" font-size="14" lengthAdjust="spacing" textLength="133.8682" x="204.94" y="205.5607">orderNumber&#160;&#160;&#160;&#160;&#160;&#160;&#160;&#160;&#160;</text><g data-visibility-modifier="PUBLIC_FIELD"><ellipse cx="195.94" cy="218.5109" fill="none" rx="3" ry="3" style="stroke:#038048;stroke-width:1;"/></g><text fill="#000000" font-family="sans-serif" font-size="14" lengthAdjust="spacing" textLength="67.6143" x="204.94" y="221.8576">total&#160;&#160;&#160;&#160;&#160;&#160;&#160;&#160;</text><line style="stroke:#181818;stroke-width:0.5;" x1="185.94" x2="343.8082" y1="229.1594" y2="229.1594"/></g><!--class SpecialOrder--><g class="entity" data-qualified-name="SpecialOrder" data-source-line="7" id="ent0004"><rect fill="#F1F1F1" height="64.2969" rx="2.5" ry="2.5" style="stroke:#181818;stroke-width:0.5;" width="161.4609" x="184.15" y="7"/><ellipse cx="216.6943" cy="23" fill="#ADD1B2" rx="11" ry="11" style="stroke:#181818;stroke-width:1;"/><path d="M219.663,28.6406 Q219.0849,28.9375 218.4443,29.0781 Q217.8037,29.2344 217.1005,29.2344 Q214.6005,29.2344 213.2724,27.5938 Q211.9599,25.9375 211.9599,22.8125 Q211.9599,19.6875 213.2724,18.0313 Q214.6005,16.375 217.1005,16.375 Q217.8037,16.375 218.4443,16.5313 Q219.1005,16.6875 219.663,16.9844 L219.663,19.7031 Q219.038,19.125 218.4443,18.8594 Q217.8505,18.5781 217.2255,18.5781 Q215.8818,18.5781 215.1943,19.6563 Q214.5068,20.7188 214.5068,22.8125 Q214.5068,24.9063 215.1943,25.9844 Q215.8818,27.0469 217.2255,27.0469 Q217.8505,27.0469 218.4443,26.7813 Q219.038,26.5 219.663,25.9219 L219.663,28.6406 Z " fill="#000000"/><text fill="#000000" font-family="sans-serif" font-size="14" lengthAdjust="spacing" textLength="90.4736" x="234.593" y="27.8467">SpecialOrder</text><line style="stroke:#181818;stroke-width:0.5;" x1="185.15" x2="344.6109" y1="39" y2="39"/><g data-visibility-modifier="PUBLIC_FIELD"><ellipse cx="195.15" cy="52.6484" fill="none" rx="3" ry="3" style="stroke:#038048;stroke-width:1;"/></g><text fill="#000000" font-family="sans-serif" font-size="14" lengthAdjust="spacing" textLength="135.4609" x="204.15" y="55.9951">discountCode&#160;&#160;&#160;&#160;&#160;&#160;&#160;&#160;&#160;</text><line style="stroke:#181818;stroke-width:0.5;" x1="185.15" x2="344.6109" y1="63.2969" y2="63.2969"/></g><!--class Customer--><g class="entity" data-qualified-name="Customer" data-source-line="10" id="ent0005"><rect fill="#F1F1F1" height="64.2969" rx="2.5" ry="2.5" style="stroke:#181818;stroke-width:0.5;" width="105.7549" x="7" y="322.3"/><ellipse cx="24.5879" cy="338.3" fill="#ADD1B2" rx="11" ry="11" style="stroke:#181818;stroke-width:1;"/><path d="M27.5567,343.9406 Q26.9786,344.2375 26.3379,344.3781 Q25.6973,344.5344 24.9942,344.5344 Q22.4942,344.5344 21.1661,342.8938 Q19.8536,341.2375 19.8536,338.1125 Q19.8536,334.9875 21.1661,333.3313 Q22.4942,331.675 24.9942,331.675 Q25.6973,331.675 26.3379,331.8313 Q26.9942,331.9875 27.5567,332.2844 L27.5567,335.0031 Q26.9317,334.425 26.3379,334.1594 Q25.7442,333.8781 25.1192,333.8781 Q23.7754,333.8781 23.0879,334.9563 Q22.4004,336.0188 22.4004,338.1125 Q22.4004,340.2063 23.0879,341.2844 Q23.7754,342.3469 25.1192,342.3469 Q25.7442,342.3469 26.3379,342.0813 Q26.9317,341.8 27.5567,341.2219 L27.5567,343.9406 Z " fill="#000000"/><text fill="#000000" font-family="sans-serif" font-size="14" lengthAdjust="spacing" textLength="68.0039" x="39.163" y="343.1467">Customer</text><line style="stroke:#181818;stroke-width:0.5;" x1="8" x2="111.7549" y1="354.3" y2="354.3"/><g data-visibility-modifier="PUBLIC_FIELD"><ellipse cx="18" cy="367.9484" fill="none" rx="3" ry="3" style="stroke:#038048;stroke-width:1;"/></g><text fill="#000000" font-family="sans-serif" font-size="14" lengthAdjust="spacing" textLength="79.7549" x="27" y="371.2951">name&#160;&#160;&#160;&#160;&#160;&#160;&#160;&#160;&#160;</text><line style="stroke:#181818;stroke-width:0.5;" x1="8" x2="111.7549" y1="378.5969" y2="378.5969"/></g><!--class OrderLine--><g class="entity" data-qualified-name="OrderLine" data-source-line="13" id="ent0006"><rect fill="#F1F1F1" height="64.2969" rx="2.5" ry="2.5" style="stroke:#181818;stroke-width:0.5;" width="111.0664" x="147.34" y="322.3"/><ellipse cx="166.7767" cy="338.3" fill="#ADD1B2" rx="11" ry="11" style="stroke:#181818;stroke-width:1;"/><path d="M169.7455,343.9406 Q169.1673,344.2375 168.5267,344.3781 Q167.8861,344.5344 167.183,344.5344 Q164.683,344.5344 163.3548,342.8938 Q162.0423,341.2375 162.0423,338.1125 Q162.0423,334.9875 163.3548,333.3313 Q164.683,331.675 167.183,331.675 Q167.8861,331.675 168.5267,331.8313 Q169.183,331.9875 169.7455,332.2844 L169.7455,335.0031 Q169.1205,334.425 168.5267,334.1594 Q167.933,333.8781 167.308,333.8781 Q165.9642,333.8781 165.2767,334.9563 Q164.5892,336.0188 164.5892,338.1125 Q164.5892,340.2063 165.2767,341.2844 Q165.9642,342.3469 167.308,342.3469 Q167.933,342.3469 168.5267,342.0813 Q169.1205,341.8 169.7455,341.2219 L169.7455,343.9406 Z " fill="#000000"/><text fill="#000000" font-family="sans-serif" font-size="14" lengthAdjust="spacing" textLength="69.207" x="181.7627" y="343.1467">OrderLine</text><line style="stroke:#181818;stroke-width:0.5;" x1="148.34" x2="257.4064" y1="354.3" y2="354.3"/><g data-visibility-modifier="PUBLIC_FIELD"><ellipse cx="158.34" cy="367.9484" fill="none" rx="3" ry="3" style="stroke:#038048;stroke-width:1;"/></g><text fill="#000000" font-family="sans-serif" font-size="14" lengthAdjust="spacing" textLength="85.0664" x="167.34" y="371.2951">quantity&#160;&#160;&#160;&#160;&#160;&#160;</text><line style="stroke:#181818;stroke-width:0.5;" x1="148.34" x2="257.4064" y1="378.5969" y2="378.5969"/></g><!--class StripePaymentAdapter--><g class="entity" data-qualified-name="StripePaymentAdapter" data-source-line="16" id="ent0007"><rect fill="#F1F1F1" height="64.2969" rx="2.5" ry="2.5" style="stroke:#181818;stroke-width:0.5;" width="286.5518" x="440.6" y="160.58"/><ellipse cx="500.0111" cy="176.58" fill="#ADD1B2" rx="11" ry="11" style="stroke:#181818;stroke-width:1;"/><path d="M502.9799,182.2206 Q502.4018,182.5175 501.7611,182.6581 Q501.1205,182.8144 500.4174,182.8144 Q497.9174,182.8144 496.5893,181.1738 Q495.2768,179.5175 495.2768,176.3925 Q495.2768,173.2675 496.5893,171.6113 Q497.9174,169.955 500.4174,169.955 Q501.1205,169.955 501.7611,170.1113 Q502.4174,170.2675 502.9799,170.5644 L502.9799,173.2831 Q502.3549,172.705 501.7611,172.4394 Q501.1674,172.1581 500.5424,172.1581 Q499.1986,172.1581 498.5111,173.2363 Q497.8236,174.2988 497.8236,176.3925 Q497.8236,178.4863 498.5111,179.5644 Q499.1986,180.6269 500.5424,180.6269 Q501.1674,180.6269 501.7611,180.3613 Q502.3549,180.08 502.9799,179.5019 L502.9799,182.2206 Z " fill="#000000"/><text fill="#000000" font-family="sans-serif" font-size="14" lengthAdjust="spacing" textLength="159.2295" x="520.5111" y="181.4267">StripePaymentAdapter</text><line style="stroke:#181818;stroke-width:0.5;" x1="441.6" x2="726.1518" y1="192.58" y2="192.58"/><line style="stroke:#181818;stroke-width:0.5;" x1="441.6" x2="726.1518" y1="200.58" y2="200.58"/><g data-visibility-modifier="PUBLIC_METHOD"><ellipse cx="451.6" cy="214.2284" fill="#84BE84" rx="3" ry="3" style="stroke:#038048;stroke-width:1;"/></g><text fill="#000000" font-family="sans-serif" font-size="14" lengthAdjust="spacing" textLength="260.5518" x="460.6" y="217.5751">authorize(amount : Money) : boolean</text></g><!--class Money--><g class="entity" data-qualified-name="Money" data-source-line="19" id="ent0008"><rect fill="#F1F1F1" height="80.5938" rx="2.5" ry="2.5" style="stroke:#181818;stroke-width:0.5;" width="127.6025" x="293.08" y="314.16"/><ellipse cx="330.2139" cy="330.16" fill="#ADD1B2" rx="11" ry="11" style="stroke:#181818;stroke-width:1;"/><path d="M333.1827,335.8006 Q332.6046,336.0975 331.9639,336.2381 Q331.3233,336.3944 330.6202,336.3944 Q328.1202,336.3944 326.7921,334.7537 Q325.4796,333.0975 325.4796,329.9725 Q325.4796,326.8475 326.7921,325.1912 Q328.1202,323.535 330.6202,323.535 Q331.3233,323.535 331.9639,323.6912 Q332.6202,323.8475 333.1827,324.1444 L333.1827,326.8631 Q332.5577,326.285 331.9639,326.0194 Q331.3702,325.7381 330.7452,325.7381 Q329.4014,325.7381 328.7139,326.8162 Q328.0264,327.8787 328.0264,329.9725 Q328.0264,332.0662 328.7139,333.1444 Q329.4014,334.2069 330.7452,334.2069 Q331.3702,334.2069 331.9639,333.9412 Q332.5577,333.66 333.1827,333.0819 L333.1827,335.8006 Z " fill="#000000"/><text fill="#000000" font-family="sans-serif" font-size="14" lengthAdjust="spacing" textLength="46.416" x="349.1326" y="335.0067">Money</text><line style="stroke:#181818;stroke-width:0.5;" x1="294.08" x2="419.6825" y1="346.16" y2="346.16"/><g data-visibility-modifier="PUBLIC_FIELD"><ellipse cx="304.08" cy="359.8084" fill="none" rx="3" ry="3" style="stroke:#038048;stroke-width:1;"/></g><text fill="#000000" font-family="sans-serif" font-size="14" lengthAdjust="spacing" textLength="98.5195" x="313.08" y="363.1551">amount&#160;&#160;&#160;&#160;&#160;&#160;&#160;&#160;&#160;&#160;</text><g data-visibility-modifier="PUBLIC_FIELD"><ellipse cx="304.08" cy="376.1053" fill="none" rx="3" ry="3" style="stroke:#038048;stroke-width:1;"/></g><text fill="#000000" font-family="sans-serif" font-size="14" lengthAdjust="spacing" textLength="101.6025" x="313.08" y="379.452">currency&#160;&#160;&#160;&#160;&#160;&#160;&#160;&#160;&#160;</text><line style="stroke:#181818;stroke-width:0.5;" x1="294.08" x2="419.6825" y1="386.7537" y2="386.7537"/></g><!--link SpecialOrder to Order--><g class="link" data-entity-1="ent0004" data-entity-2="ent0003" data-link-type="dependency" data-source-line="25" id="lnk9"><path codeLine="25" d="M264.88,71.56 C264.88,93.67 264.88,117.56 264.88,142" fill="none" id="SpecialOrder-to-Order" style="stroke:#181818;stroke-width:1;"/><polygon fill="#181818" points="264.88,148,268.88,139,264.88,143,260.88,139,264.88,148" style="stroke:#181818;stroke-width:1;"/><text fill="#000000" font-family="sans-serif" font-size="13" lengthAdjust="spacing" textLength="73.4932" x="265.88" y="114.3669">inheritance</text></g><!--link StripePaymentAdapter to PaymentPort--><g class="link" data-entity-1="ent0007" data-entity-2="ent0002" data-link-type="dependency" data-source-line="26" id="lnk10"><path codeLine="26" d="M575.58,225.28 C567.45,256.19 556.7867,296.7675 549.5067,324.4375" fill="none" id="StripePaymentAdapter-to-PaymentPort" style="stroke:#181818;stroke-width:1;"/><polygon fill="#181818" points="547.98,330.24,554.1383,322.554,549.2522,325.4046,546.4016,320.5184,547.98,330.24" style="stroke:#181818;stroke-width:1;"/><text fill="#000000" font-family="sans-serif" font-size="13" lengthAdjust="spacing" textLength="68.2246" x="565.88" y="280.2269">realization</text></g><!--link Order to PaymentPort--><g class="link" data-entity-1="ent0003" data-entity-2="ent0002" data-link-type="dependency" data-source-line="27" id="lnk11"><path codeLine="27" d="M345.18,233.63 C365.51,244.17 387.16,255.79 406.88,267.16 C441.7,287.23 475.2211,308.8217 502.1711,326.7117" fill="none" id="Order-to-PaymentPort" style="stroke:#181818;stroke-width:1;"/><polygon fill="#181818" points="507.17,330.03,501.8839,321.7199,503.0043,327.2647,497.4595,328.385,507.17,330.03" style="stroke:#181818;stroke-width:1;"/><text fill="#000000" font-family="sans-serif" font-size="13" lengthAdjust="spacing" textLength="80.0693" x="434.88" y="280.2269">dependency</text></g><!--link Order to OrderLine--><g class="link" data-entity-1="ent0003" data-entity-2="ent0006" data-link-type="dependency" data-source-line="28" id="lnk12"><path codeLine="28" d="M231.24,237.44 C225.32,246.84 219.8,257.01 215.88,267.16 C209.16,284.54 206.4513,299.1663 204.8813,315.8763" fill="none" id="Order-to-OrderLine" style="stroke:#181818;stroke-width:1;"/><polygon fill="#181818" points="204.32,321.85,209.1444,313.2636,204.7877,316.8719,201.1794,312.5153,204.32,321.85" style="stroke:#181818;stroke-width:1;"/><text fill="#000000" font-family="sans-serif" font-size="13" lengthAdjust="spacing" textLength="79.2568" x="216.88" y="280.2269">composition</text></g><!--link Order to Customer--><g class="link" data-entity-1="ent0003" data-entity-2="ent0005" data-link-type="dependency" data-source-line="29" id="lnk13"><path codeLine="29" d="M184.53,227.12 C163.22,238.08 141.1,251.53 122.88,267.16 C104.85,282.61 92.3138,299.1133 81.0738,316.8333" fill="none" id="Order-to-Customer" style="stroke:#181818;stroke-width:1;"/><polygon fill="#181818" points="77.86,321.9,86.0586,316.4426,80.5382,317.6778,79.303,312.1574,77.86,321.9" style="stroke:#181818;stroke-width:1;"/><text fill="#000000" font-family="sans-serif" font-size="13" lengthAdjust="spacing" textLength="78.9331" x="123.88" y="280.2269">aggregation</text></g><!--link Order to Money--><g class="link" data-entity-1="ent0003" data-entity-2="ent0008" data-link-type="dependency" data-source-line="30" id="lnk14"><path codeLine="30" d="M290.02,237.37 C303.74,261.2 317.6158,285.2905 330.9758,308.4905" fill="none" id="Order-to-Money" style="stroke:#181818;stroke-width:1;"/><polygon fill="#181818" points="333.97,313.69,332.945,303.8946,331.4748,309.3571,326.0124,307.8869,333.97,313.69" style="stroke:#181818;stroke-width:1;"/><text fill="#000000" font-family="sans-serif" font-size="13" lengthAdjust="spacing" textLength="80.812" x="317.88" y="280.2269">totalAmount</text></g><?plantuml-src XP9DReD038NtdCBBLbKkW28ab6r_elO4Pd39I60JOnQaobrwbfwiOO2q4DHgDYFvy_ERv_5ifE_e2FROLSIs5pNuYCuHPeqfEWDNOjF0Y-QaiDscHQ5Ke16yYbYIN5Y01-chpssLaNvzBayFc1YMDuLpD8Y_rUGybiEC89ZxnadBjfESLXIdnbtRc5HJ4sFr5npa7ptJG1zRPFFMhJiozJMDcQGvrZODmTOEelv4TrZr3Y669s7gxY-NJAGavAjAA8nj0RvrDyJZMbLYr_tdFcncbjPcauob63mVIBqXEufM7z33l_SSWnAM_eJcXQCVmJcJKqsSz_QYnSmGPWnEgbeQln2vxYO673_D71ZIYI7yZJJaymq0?></g></svg>