<?plantuml 1.2026.1?><svg xmlns="http://www.w3.org/2000/svg" xmlns:xlink="http://www.w3.org/1999/xlink" contentStyleType="text/css" data-diagram-type="CLASS" height="360px" preserveAspectRatio="none" style="width:208px;height:360px;background:#FFFFFF;" version="1.1" viewBox="0 0 208 360" width="208px" zoomAndPan="magnify"><defs/><g><!--class Warehouse--><g class="entity" data-qualified-name="Warehouse" data-source-line="2" id="ent0002"><rect fill="#F1F1F1" height="64.2969" rx="2.5" ry="2.5" style="stroke:#181818;stroke-width:0.5;" width="155.1719" x="7" y="7"/><ellipse cx="41.8729" cy="23" fill="#ADD1B2" rx="11" ry="11" style="stroke:#181818;stroke-width:1;"/><path d="M44.8417,28.6406 Q44.2636,28.9375 43.6229,29.0781 Q42.9823,29.2344 42.2792,29.2344 Q39.7792,29.2344 38.4511,27.5938 Q37.1386,25.9375 37.1386,22.8125 Q37.1386,19.6875 38.4511,18.0313 Q39.7792,16.375 42.2792,16.375 Q42.9823,16.375 43.6229,16.5313 Q44.2792,16.6875 44.8417,16.9844 L44.8417,19.7031 Q44.2167,19.125 43.6229,18.8594 Q43.0292,18.5781 42.4042,18.5781 Q41.0604,18.5781 40.3729,19.6563 Q39.6854,20.7188 39.6854,22.8125 Q39.6854,24.9063 40.3729,25.9844 Q41.0604,27.0469 42.4042,27.0469 Q43.0292,27.0469 43.6229,26.7813 Q44.2167,26.5 44.8417,25.9219 L44.8417,28.6406 Z " fill="#000000"/><text fill="#000000" font-family="sans-serif" font-size="14" lengthAdjust="spacing" textLength="79.0098" x="60.2892" y="27.8467">Warehouse</text><line style="stroke:#181818;stroke-width:0.5;" x1="8" x2="161.1719" y1="39" y2="39"/><text fill="#000000" font-family="sans-serif" font-size="14" lengthAdjust="spacing" textLength="143.1719" x="13" y="55.9951">+locationCode&#160;&#160;&#160;&#160;&#160;&#160;&#160;&#160;&#160;</text><line style="stroke:#181818;stroke-width:0.5;" x1="8" x2="161.1719" y1="63.2969" y2="63.2969"/></g><!--class StorageBin--><g class="entity" data-qualified-name="StorageBin" data-source-line="5" id="ent0003"><rect fill="#F1F1F1" height="64.2969" rx="2.5" ry="2.5" style="stroke:#181818;stroke-width:0.5;" width="109.1436" x="30.01" y="148.3"/><ellipse cx="45.01" cy="164.3" fill="#ADD1B2" rx="11" ry="11" style="stroke:#181818;stroke-width:1;"/><path d="M47.9788,169.9406 Q47.4006,170.2375 46.76,170.3781 Q46.1194,170.5344 45.4163,170.5344 Q42.9163,170.5344 41.5881,168.8937 Q40.2756,167.2375 40.2756,164.1125 Q40.2756,160.9875 41.5881,159.3312 Q42.9163,157.675 45.4163,157.675 Q46.1194,157.675 46.76,157.8312 Q47.4163,157.9875 47.9788,158.2844 L47.9788,161.0031 Q47.3538,160.425 46.76,160.1594 Q46.1663,159.8781 45.5413,159.8781 Q44.1975,159.8781 43.51,160.9562 Q42.8225,162.0187 42.8225,164.1125 Q42.8225,166.2062 43.51,167.2844 Q44.1975,168.3469 45.5413,168.3469 Q46.1663,168.3469 46.76,168.0812 Q47.3538,167.8 47.9788,167.2219 L47.9788,169.9406 Z " fill="#000000"/><text fill="#000000" font-family="sans-serif" font-size="14" lengthAdjust="spacing" textLength="77.1436" x="59.01" y="169.1467">StorageBin</text><line style="stroke:#181818;stroke-width:0.5;" x1="31.01" x2="138.1536" y1="180.3" y2="180.3"/><text fill="#000000" font-family="sans-serif" font-size="14" lengthAdjust="spacing" textLength="85.6406" x="36.01" y="197.2951">+label&#160;&#160;&#160;&#160;&#160;&#160;&#160;&#160;&#160;</text><line style="stroke:#181818;stroke-width:0.5;" x1="31.01" x2="138.1536" y1="204.5969" y2="204.5969"/></g><!--class Pallet--><g class="entity" data-qualified-name="Pallet" data-source-line="8" id="ent0004"><rect fill="#F1F1F1" height="64.2969" rx="2.5" ry="2.5" style="stroke:#181818;stroke-width:0.5;" width="120.7666" x="24.2" y="289.59"/><ellipse cx="61.6385" cy="305.59" fill="#ADD1B2" rx="11" ry="11" style="stroke:#181818;stroke-width:1;"/><path d="M64.6072,311.2306 Q64.0291,311.5275 63.3885,311.6681 Q62.7479,311.8244 62.0447,311.8244 Q59.5447,311.8244 58.2166,310.1838 Q56.9041,308.5275 56.9041,305.4025 Q56.9041,302.2775 58.2166,300.6213 Q59.5447,298.965 62.0447,298.965 Q62.7479,298.965 63.3885,299.1213 Q64.0447,299.2775 64.6072,299.5744 L64.6072,302.2931 Q63.9822,301.715 63.3885,301.4494 Q62.7947,301.1681 62.1697,301.1681 Q60.826,301.1681 60.1385,302.2463 Q59.451,303.3088 59.451,305.4025 Q59.451,307.4963 60.1385,308.5744 Q60.826,309.6369 62.1697,309.6369 Q62.7947,309.6369 63.3885,309.3713 Q63.9822,309.09 64.6072,308.5119 L64.6072,311.2306 Z " fill="#000000"/><text fill="#000000" font-family="sans-serif" font-size="14" lengthAdjust="spacing" textLength="38.9033" x="80.6248" y="310.4367">Pallet</text><line style="stroke:#181818;stroke-width:0.5;" x1="25.2" x2="143.9666" y1="321.59" y2="321.59"/><text fill="#000000" font-family="sans-serif" font-size="14" lengthAdjust="spacing" textLength="108.7666" x="30.2" y="338.5851">+barcode&#160;&#160;&#160;&#160;&#160;&#160;&#160;&#160;&#160;</text><line style="stroke:#181818;stroke-width:0.5;" x1="25.2" x2="143.9666" y1="345.8869" y2="345.8869"/></g><!--link Warehouse to StorageBin--><g class="link" data-entity-1="ent0002" data-entity-2="ent0003" data-link-type="dependency" data-source-line="11" id="lnk5"><path codeLine="11" d="M84.59,71.76 C84.59,94.55 84.59,119.19 84.59,141.96" fill="none" id="Warehouse-to-StorageBin" style="stroke:#181818;stroke-width:1;"/><polygon fill="#181818" points="84.59,147.96,88.59,138.96,84.59,142.96,80.59,138.96,84.59,147.96" style="stroke:#181818;stroke-width:1;"/><text fill="#000000" font-family="sans-serif" font-size="13" lengthAdjust="spacing" textLength="114.8354" x="85.59" y="114.3669">partOfWarehouse</text></g><!--link StorageBin to Pallet--><g class="link" data-entity-1="ent0003" data-entity-2="ent0004" data-link-type="dependency" data-source-line="12" id="lnk6"><path codeLine="12" d="M84.59,213.05 C84.59,235.85 84.59,260.49 84.59,283.26" fill="none" id="StorageBin-to-Pallet" style="stroke:#181818;stroke-width:1;"/><polygon fill="#181818" points="84.59,289.26,88.59,280.26,84.59,284.26,80.59,280.26,84.59,289.26" style="stroke:#181818;stroke-width:1;"/><text fill="#000000" font-family="sans-serif" font-size="13" lengthAdjust="spacing" textLength="79.9868" x="85.59" y="255.6569">packedInBin</text></g><?plantuml-src AyxEp2j8B4hCLKZEIImkTYmfASfCAYr9zKpEpmlEh4fLCE02IoY49nQbPkIN5gSgL7CfA6Zdv2SdbcJcvpddfwGUMe0EkMgXke9ByeiIqrETClEWsXAJKdFmg0z8pCb9BO6eJKeiIiPbEi8rkhfsoBPOAG1zK-AV1bV0XIG9KWkr0QGkEJirnJCFA040?></g></svg>