<?plantuml 1.2026.1?><svg xmlns="http://www.w3.org/2000/svg" xmlns:xlink="http://www.w3.org/1999/xlink" contentStyleType="text/css" data-diagram-type="CLASS" height="605px" preserveAspectRatio="none" style="width:752px;height:605px;background:#FFFFFF;" version="1.1" viewBox="0 0 752 605" width="752px" zoomAndPan="magnify"><defs/><g><!--class PaymentPort--><g class="entity" data-qualified-name="PaymentPort" data-source-line="1" id="ent0002"><rect fill="#F1F1F1" height="48" rx="2.5" ry="2.5" style="stroke:#181818;stroke-width:0.5;" width="122.1729" x="520.46" y="411.93"/><ellipse cx="535.46" cy="427.93" fill="#B4A7E5" rx="11" ry="11" style="stroke:#181818;stroke-width:1;"/><path d="M531.3819,423.6956 L531.3819,421.5394 L538.7725,421.5394 L538.7725,423.6956 L536.3038,423.6956 L536.3038,431.7738 L538.7725,431.7738 L538.7725,433.93 L531.3819,433.93 L531.3819,431.7738 L533.8506,431.7738 L533.8506,423.6956 L531.3819,423.6956 Z " fill="#000000"/><text fill="#000000" font-family="sans-serif" font-size="14" font-style="italic" lengthAdjust="spacing" textLength="90.1729" x="549.46" y="432.7767">PaymentPort</text><line style="stroke:#181818;stroke-width:0.5;" x1="521.46" x2="641.6329" y1="443.93" y2="443.93"/><line style="stroke:#181818;stroke-width:0.5;" x1="521.46" x2="641.6329" y1="451.93" y2="451.93"/></g><!--class Order--><g class="entity" data-qualified-name="Order" data-source-line="3" id="ent0003"><rect fill="#F1F1F1" height="154.0469" rx="2.5" ry="2.5" style="stroke:#181818;stroke-width:0.5;" width="205.1016" x="169" y="164.59"/><ellipse cx="214.7793" cy="184.7228" fill="#ADD1B2" rx="11" ry="11" style="stroke:#181818;stroke-width:1;"/><path d="M217.748,190.3634 Q217.1699,190.6603 216.5293,190.8009 Q215.8887,190.9572 215.1855,190.9572 Q212.6855,190.9572 211.3574,189.3166 Q210.0449,187.6603 210.0449,184.5353 Q210.0449,181.4103 211.3574,179.7541 Q212.6855,178.0978 215.1855,178.0978 Q215.8887,178.0978 216.5293,178.2541 Q217.1855,178.4103 217.748,178.7072 L217.748,181.4259 Q217.123,180.8478 216.5293,180.5822 Q215.9355,180.3009 215.3105,180.3009 Q213.9668,180.3009 213.2793,181.3791 Q212.5918,182.4416 212.5918,184.5353 Q212.5918,186.6291 213.2793,187.7072 Q213.9668,188.7697 215.3105,188.7697 Q215.9355,188.7697 216.5293,188.5041 Q217.123,188.2228 217.748,187.6447 L217.748,190.3634 Z " fill="#000000"/><text fill="#000000" font-family="sans-serif" font-size="12" font-style="italic" lengthAdjust="spacing" textLength="109.043" x="233.2793" y="180.7287">&#171;Aggregate Root&#187;</text><text fill="#000000" font-family="sans-serif" font-size="14" lengthAdjust="spacing" textLength="40.0313" x="267.7852" y="196.5539">Order</text><line style="stroke:#181818;stroke-width:0.5;" x1="170" x2="373.1016" y1="204.8556" y2="204.8556"/><g data-visibility-modifier="PUBLIC_FIELD"><ellipse cx="180" cy="218.5041" fill="none" rx="3" ry="3" style="stroke:#038048;stroke-width:1;"/></g><text fill="#000000" font-family="sans-serif" font-size="14" lengthAdjust="spacing" textLength="61.7969" x="189" y="221.8507">id : UUID</text><g data-visibility-modifier="PUBLIC_FIELD"><ellipse cx="180" cy="234.8009" fill="none" rx="3" ry="3" style="stroke:#038048;stroke-width:1;"/></g><text fill="#000000" font-family="sans-serif" font-size="14" lengthAdjust="spacing" textLength="149.2148" x="189" y="238.1476">orderNumber : String</text><g data-visibility-modifier="PUBLIC_FIELD"><ellipse cx="180" cy="251.0978" fill="none" rx="3" ry="3" style="stroke:#038048;stroke-width:1;"/></g><text fill="#000000" font-family="sans-serif" font-size="14" lengthAdjust="spacing" textLength="92.0459" x="189" y="254.4445">total : Money</text><g data-visibility-modifier="PRIVATE_FIELD"><rect fill="none" height="6" style="stroke:#C82930;stroke-width:1;" width="6" x="177" y="264.3947"/></g><text fill="#000000" font-family="sans-serif" font-size="14" lengthAdjust="spacing" textLength="179.1016" x="189" y="270.7414">composition : OrderLine[]</text><g data-visibility-modifier="PRIVATE_FIELD"><rect fill="none" height="6" style="stroke:#C82930;stroke-width:1;" width="6" x="177" y="280.6916"/></g><text fill="#000000" font-family="sans-serif" font-size="14" lengthAdjust="spacing" textLength="166.626" x="189" y="287.0382">aggregation : Customer</text><g data-visibility-modifier="PRIVATE_FIELD"><rect fill="none" height="6" style="stroke:#C82930;stroke-width:1;" width="6" x="177" y="296.9884"/></g><text fill="#000000" font-family="sans-serif" font-size="14" lengthAdjust="spacing" textLength="138.749" x="189" y="303.3351">association : Money</text><line style="stroke:#181818;stroke-width:0.5;" x1="170" x2="373.1016" y1="310.6369" y2="310.6369"/></g><!--class SpecialOrder--><g class="entity" data-qualified-name="SpecialOrder" data-source-line="8" id="ent0004"><rect fill="#F1F1F1" height="80.5938" rx="2.5" ry="2.5" style="stroke:#181818;stroke-width:0.5;" width="176.8076" x="183.15" y="7"/><ellipse cx="222.6003" cy="23" fill="#ADD1B2" rx="11" ry="11" style="stroke:#181818;stroke-width:1;"/><path d="M225.569,28.6406 Q224.9909,28.9375 224.3503,29.0781 Q223.7097,29.2344 223.0065,29.2344 Q220.5065,29.2344 219.1784,27.5938 Q217.8659,25.9375 217.8659,22.8125 Q217.8659,19.6875 219.1784,18.0313 Q220.5065,16.375 223.0065,16.375 Q223.7097,16.375 224.3503,16.5313 Q225.0065,16.6875 225.569,16.9844 L225.569,19.7031 Q224.944,19.125 224.3503,18.8594 Q223.7565,18.5781 223.1315,18.5781 Q221.7878,18.5781 221.1003,19.6563 Q220.4128,20.7188 220.4128,22.8125 Q220.4128,24.9063 221.1003,25.9844 Q221.7878,27.0469 223.1315,27.0469 Q223.7565,27.0469 224.3503,26.7813 Q224.944,26.5 225.569,25.9219 L225.569,28.6406 Z " fill="#000000"/><text fill="#000000" font-family="sans-serif" font-size="14" lengthAdjust="spacing" textLength="90.4736" x="242.0337" y="27.8467">SpecialOrder</text><line style="stroke:#181818;stroke-width:0.5;" x1="184.15" x2="358.9576" y1="39" y2="39"/><g data-visibility-modifier="PUBLIC_FIELD"><ellipse cx="194.15" cy="52.6484" fill="none" rx="3" ry="3" style="stroke:#038048;stroke-width:1;"/></g><text fill="#000000" font-family="sans-serif" font-size="14" lengthAdjust="spacing" textLength="150.8076" x="203.15" y="55.9951">discountCode : String</text><g data-visibility-modifier="PRIVATE_FIELD"><rect fill="none" height="6" style="stroke:#C82930;stroke-width:1;" width="6" x="191.15" y="65.9453"/></g><text fill="#000000" font-family="sans-serif" font-size="14" lengthAdjust="spacing" textLength="132.7949" x="203.15" y="72.292">inheritance : Order</text><line style="stroke:#181818;stroke-width:0.5;" x1="184.15" x2="358.9576" y1="79.5938" y2="79.5938"/></g><!--class Customer--><g class="entity" data-qualified-name="Customer" data-source-line="12" id="ent0005"><rect fill="#F1F1F1" height="80.5938" rx="2.5" ry="2.5" style="stroke:#181818;stroke-width:0.5;" width="121.1016" x="7" y="395.64"/><ellipse cx="31.4939" cy="411.64" fill="#ADD1B2" rx="11" ry="11" style="stroke:#181818;stroke-width:1;"/><path d="M34.4627,417.2806 Q33.8846,417.5775 33.2439,417.7181 Q32.6033,417.8744 31.9002,417.8744 Q29.4002,417.8744 28.0721,416.2338 Q26.7596,414.5775 26.7596,411.4525 Q26.7596,408.3275 28.0721,406.6713 Q29.4002,405.015 31.9002,405.015 Q32.6033,405.015 33.2439,405.1713 Q33.9002,405.3275 34.4627,405.6244 L34.4627,408.3431 Q33.8377,407.765 33.2439,407.4994 Q32.6502,407.2181 32.0252,407.2181 Q30.6814,407.2181 29.9939,408.2963 Q29.3064,409.3588 29.3064,411.4525 Q29.3064,413.5463 29.9939,414.6244 Q30.6814,415.6869 32.0252,415.6869 Q32.6502,415.6869 33.2439,415.4213 Q33.8377,415.14 34.4627,414.5619 L34.4627,417.2806 Z " fill="#000000"/><text fill="#000000" font-family="sans-serif" font-size="14" lengthAdjust="spacing" textLength="68.0039" x="47.6037" y="416.4867">Customer</text><line style="stroke:#181818;stroke-width:0.5;" x1="8" x2="127.1016" y1="427.64" y2="427.64"/><g data-visibility-modifier="PUBLIC_FIELD"><ellipse cx="18" cy="441.2884" fill="none" rx="3" ry="3" style="stroke:#038048;stroke-width:1;"/></g><text fill="#000000" font-family="sans-serif" font-size="14" lengthAdjust="spacing" textLength="61.7969" x="27" y="444.6351">id : UUID</text><g data-visibility-modifier="PUBLIC_FIELD"><ellipse cx="18" cy="457.5853" fill="none" rx="3" ry="3" style="stroke:#038048;stroke-width:1;"/></g><text fill="#000000" font-family="sans-serif" font-size="14" lengthAdjust="spacing" textLength="95.1016" x="27" y="460.932">name : String</text><line style="stroke:#181818;stroke-width:0.5;" x1="8" x2="127.1016" y1="468.2338" y2="468.2338"/></g><!--class OrderLine--><g class="entity" data-qualified-name="OrderLine" data-source-line="16" id="ent0006"><rect fill="#F1F1F1" height="80.5938" rx="2.5" ry="2.5" style="stroke:#181818;stroke-width:0.5;" width="116.2344" x="163.43" y="395.64"/><ellipse cx="185.1923" cy="411.64" fill="#ADD1B2" rx="11" ry="11" style="stroke:#181818;stroke-width:1;"/><path d="M188.1611,417.2806 Q187.5829,417.5775 186.9423,417.7181 Q186.3017,417.8744 185.5986,417.8744 Q183.0986,417.8744 181.7704,416.2338 Q180.4579,414.5775 180.4579,411.4525 Q180.4579,408.3275 181.7704,406.6713 Q183.0986,405.015 185.5986,405.015 Q186.3017,405.015 186.9423,405.1713 Q187.5986,405.3275 188.1611,405.6244 L188.1611,408.3431 Q187.5361,407.765 186.9423,407.4994 Q186.3486,407.2181 185.7236,407.2181 Q184.3798,407.2181 183.6923,408.2963 Q183.0048,409.3588 183.0048,411.4525 Q183.0048,413.5463 183.6923,414.6244 Q184.3798,415.6869 185.7236,415.6869 Q186.3486,415.6869 186.9423,415.4213 Q187.5361,415.14 188.1611,414.5619 L188.1611,417.2806 Z " fill="#000000"/><text fill="#000000" font-family="sans-serif" font-size="14" lengthAdjust="spacing" textLength="69.207" x="200.695" y="416.4867">OrderLine</text><line style="stroke:#181818;stroke-width:0.5;" x1="164.43" x2="278.6644" y1="427.64" y2="427.64"/><g data-visibility-modifier="PUBLIC_FIELD"><ellipse cx="174.43" cy="441.2884" fill="none" rx="3" ry="3" style="stroke:#038048;stroke-width:1;"/></g><text fill="#000000" font-family="sans-serif" font-size="14" lengthAdjust="spacing" textLength="61.7969" x="183.43" y="444.6351">id : UUID</text><g data-visibility-modifier="PUBLIC_FIELD"><ellipse cx="174.43" cy="457.5853" fill="none" rx="3" ry="3" style="stroke:#038048;stroke-width:1;"/></g><text fill="#000000" font-family="sans-serif" font-size="14" lengthAdjust="spacing" textLength="90.2344" x="183.43" y="460.932">quantity : int</text><line style="stroke:#181818;stroke-width:0.5;" x1="164.43" x2="278.6644" y1="468.2338" y2="468.2338"/></g><!--class StripePaymentAdapter--><g class="entity" data-qualified-name="StripePaymentAdapter" data-source-line="20" id="ent0007"><rect fill="#F1F1F1" height="80.5938" rx="2.5" ry="2.5" style="stroke:#181818;stroke-width:0.5;" width="286.5518" x="459.27" y="201.32"/><ellipse cx="518.6811" cy="217.32" fill="#ADD1B2" rx="11" ry="11" style="stroke:#181818;stroke-width:1;"/><path d="M521.6499,222.9606 Q521.0718,223.2575 520.4311,223.3981 Q519.7905,223.5544 519.0874,223.5544 Q516.5874,223.5544 515.2593,221.9138 Q513.9468,220.2575 513.9468,217.1325 Q513.9468,214.0075 515.2593,212.3513 Q516.5874,210.695 519.0874,210.695 Q519.7905,210.695 520.4311,210.8513 Q521.0874,211.0075 521.6499,211.3044 L521.6499,214.0231 Q521.0249,213.445 520.4311,213.1794 Q519.8374,212.8981 519.2124,212.8981 Q517.8686,212.8981 517.1811,213.9763 Q516.4936,215.0388 516.4936,217.1325 Q516.4936,219.2263 517.1811,220.3044 Q517.8686,221.3669 519.2124,221.3669 Q519.8374,221.3669 520.4311,221.1013 Q521.0249,220.82 521.6499,220.2419 L521.6499,222.9606 Z " fill="#000000"/><text fill="#000000" font-family="sans-serif" font-size="14" lengthAdjust="spacing" textLength="159.2295" x="539.1811" y="222.1667">StripePaymentAdapter</text><line style="stroke:#181818;stroke-width:0.5;" x1="460.27" x2="744.8218" y1="233.32" y2="233.32"/><g data-visibility-modifier="PRIVATE_FIELD"><rect fill="none" height="6" style="stroke:#C82930;stroke-width:1;" width="6" x="467.27" y="243.9684"/></g><text fill="#000000" font-family="sans-serif" font-size="14" lengthAdjust="spacing" textLength="177.2627" x="479.27" y="250.3151">realization : PaymentPort</text><line style="stroke:#181818;stroke-width:0.5;" x1="460.27" x2="744.8218" y1="257.6169" y2="257.6169"/><g data-visibility-modifier="PUBLIC_METHOD"><ellipse cx="470.27" cy="271.2653" fill="#84BE84" rx="3" ry="3" style="stroke:#038048;stroke-width:1;"/></g><text fill="#000000" font-family="sans-serif" font-size="14" lengthAdjust="spacing" textLength="260.5518" x="479.27" y="274.612">authorize(amount : Money) : boolean</text></g><!--class Money--><g class="entity" data-qualified-name="Money" data-source-line="24" id="ent0008"><rect fill="#F1F1F1" height="80.5938" rx="2.5" ry="2.5" style="stroke:#181818;stroke-width:0.5;" width="150.7217" x="314.19" y="395.64"/><ellipse cx="362.0928" cy="411.64" fill="#ADD1B2" rx="11" ry="11" style="stroke:#181818;stroke-width:1;"/><path d="M365.0616,417.2806 Q364.4835,417.5775 363.8428,417.7181 Q363.2022,417.8744 362.4991,417.8744 Q359.9991,417.8744 358.671,416.2338 Q357.3585,414.5775 357.3585,411.4525 Q357.3585,408.3275 358.671,406.6713 Q359.9991,405.015 362.4991,405.015 Q363.2022,405.015 363.8428,405.1713 Q364.4991,405.3275 365.0616,405.6244 L365.0616,408.3431 Q364.4366,407.765 363.8428,407.4994 Q363.2491,407.2181 362.6241,407.2181 Q361.2803,407.2181 360.5928,408.2963 Q359.9053,409.3588 359.9053,411.4525 Q359.9053,413.5463 360.5928,414.6244 Q361.2803,415.6869 362.6241,415.6869 Q363.2491,415.6869 363.8428,415.4213 Q364.4366,415.14 365.0616,414.5619 L365.0616,417.2806 Z " fill="#000000"/><text fill="#000000" font-family="sans-serif" font-size="14" lengthAdjust="spacing" textLength="46.416" x="382.5928" y="416.4867">Money</text><line style="stroke:#181818;stroke-width:0.5;" x1="315.19" x2="463.9117" y1="427.64" y2="427.64"/><g data-visibility-modifier="PUBLIC_FIELD"><ellipse cx="325.19" cy="441.2884" fill="none" rx="3" ry="3" style="stroke:#038048;stroke-width:1;"/></g><text fill="#000000" font-family="sans-serif" font-size="14" lengthAdjust="spacing" textLength="124.7217" x="334.19" y="444.6351">amount : Decimal</text><g data-visibility-modifier="PUBLIC_FIELD"><ellipse cx="325.19" cy="457.5853" fill="none" rx="3" ry="3" style="stroke:#038048;stroke-width:1;"/></g><text fill="#000000" font-family="sans-serif" font-size="14" lengthAdjust="spacing" textLength="116.9492" x="334.19" y="460.932">currency : String</text><line style="stroke:#181818;stroke-width:0.5;" x1="315.19" x2="463.9117" y1="468.2338" y2="468.2338"/></g><!--link SpecialOrder to Order--><g class="link" data-entity-1="ent0004" data-entity-2="ent0003" data-link-type="extension" data-source-line="33" id="lnk9"><path codeLine="33" d="M271.55,87.68 C271.55,109.76 271.55,120.08 271.55,146.33" fill="none" id="SpecialOrder-to-Order" style="stroke:#181818;stroke-width:1;"/><polygon fill="none" points="271.55,164.33,277.55,146.33,265.55,146.33,271.55,164.33" style="stroke:#181818;stroke-width:1;"/><text fill="#000000" font-family="sans-serif" font-size="13" lengthAdjust="spacing" textLength="73.4932" x="272.55" y="130.6569">inheritance</text></g><!--link StripePaymentAdapter to PaymentPort--><g class="link" data-entity-1="ent0007" data-entity-2="ent0002" data-link-type="extension" data-source-line="34" id="lnk10"><path codeLine="34" d="M598.25,282 C593.99,321.01 589.5624,361.5562 586.0524,393.7262" fill="none" id="StripePaymentAdapter-to-PaymentPort" style="stroke:#181818;stroke-width:1;stroke-dasharray:7,7;"/><polygon fill="none" points="584.1,411.62,592.017,394.377,580.0878,393.0754,584.1,411.62" style="stroke:#181818;stroke-width:1;"/><text fill="#000000" font-family="sans-serif" font-size="13" lengthAdjust="spacing" textLength="68.2246" x="592.55" y="361.7069">realization</text></g><!--link Order to PaymentPort--><g class="link" data-entity-1="ent0003" data-entity-2="ent0002" data-link-type="dependency" data-source-line="35" id="lnk11"><path codeLine="35" d="M374.35,306.39 C432.68,342.58 497.0915,382.5369 538.9515,408.5069" fill="none" id="Order-to-PaymentPort" style="stroke:#181818;stroke-width:1;stroke-dasharray:7,7;"/><polygon fill="#181818" points="544.05,411.67,538.511,403.5263,539.8013,409.0341,534.2935,410.3243,544.05,411.67" style="stroke:#181818;stroke-width:1;"/><text fill="#000000" font-family="sans-serif" font-size="13" lengthAdjust="spacing" textLength="80.0693" x="464.55" y="361.7069">dependency</text></g><!--link Order to OrderLine--><g class="link" data-entity-1="ent0003" data-entity-2="ent0006" data-link-type="dependency" data-source-line="36" id="lnk12"><path codeLine="36" d="M249.48,318.94 C246.74,328.91 244.03,339 241.55,348.64 C237.64,363.83 235.0069,374.7608 231.6469,389.4608" fill="none" id="Order-to-OrderLine" style="stroke:#181818;stroke-width:1;"/><polygon fill="#181818" points="230.31,395.31,236.2149,387.4276,231.4241,390.4357,228.416,385.645,230.31,395.31" style="stroke:#181818;stroke-width:1;"/><text fill="#000000" font-family="sans-serif" font-size="13" lengthAdjust="spacing" textLength="79.2568" x="242.55" y="361.7069">composition</text></g><!--link Order to Customer--><g class="link" data-entity-1="ent0003" data-entity-2="ent0005" data-link-type="dependency" data-source-line="37" id="lnk13"><path codeLine="37" d="M181.72,318.95 C170.74,328.78 159.79,338.84 149.55,348.64 C134.02,363.49 121.6746,376.1437 107.6246,391.1237" fill="none" id="Order-to-Customer" style="stroke:#181818;stroke-width:1;"/><polygon fill="#181818" points="103.52,395.5,112.5945,391.6719,106.9405,391.8531,106.7594,386.1991,103.52,395.5" style="stroke:#181818;stroke-width:1;"/><text fill="#000000" font-family="sans-serif" font-size="13" lengthAdjust="spacing" textLength="78.9331" x="150.55" y="361.7069">aggregation</text></g><!--link Order to Money--><g class="link" data-entity-1="ent0003" data-entity-2="ent0008" data-link-type="dependency" data-source-line="38" id="lnk14"><path codeLine="38" d="M318.36,318.9 C334.38,345.01 348.5227,368.0556 362.0427,390.0956" fill="none" id="Order-to-Money" style="stroke:#181818;stroke-width:1;"/><polygon fill="#181818" points="365.18,395.21,363.8836,385.4468,362.5656,390.948,357.0644,389.6299,365.18,395.21" style="stroke:#181818;stroke-width:1;"/><text fill="#000000" font-family="sans-serif" font-size="13" lengthAdjust="spacing" textLength="73.0933" x="346.55" y="361.7069">association</text></g><g class="legend" data-source-line="39"><rect fill="#DDDDDD" height="91.4844" rx="7.5" ry="7.5" style="stroke:#000000;stroke-width:1;" width="157.041" x="569.7807" y="494.2338"/><text fill="#000000" font-family="sans-serif" font-size="14" font-weight="bold" lengthAdjust="spacing" textLength="73.9307" x="574.7807" y="512.2289">Relations</text><text fill="#000000" font-family="sans-serif" font-size="14" lengthAdjust="spacing" textLength="111.5762" x="574.7807" y="528.5257">&#8674; : dependency</text><text fill="#000000" font-family="sans-serif" font-size="14" lengthAdjust="spacing" textLength="147.041" x="574.7807" y="544.8226">&#8674;&#9651; : implementation</text><text fill="#000000" font-family="sans-serif" font-size="14" lengthAdjust="spacing" textLength="103.5303" x="574.7807" y="561.1195">&#9651; : inheritance</text><text fill="#000000" font-family="sans-serif" font-size="14" lengthAdjust="spacing" textLength="104.0635" x="574.7807" y="577.4164">&#8594; : association</text></g><?plantuml-src TLAxJiGm4Epp5Iv1w8u-EaL2N8F4Ivoe4CN6MNAM73lOc-8EQA6du0Fu1VxeleHrd0GVWYwPsPtPdRKoXEu198fhs3HewDew4a_PImQb9mUIXDJWlRXo5JgnM9pKjSCQ2CMDjLGKN2l4aQf4BcvlpvRXnuRIowufkI4NAtBAr04dIw0PkR06D-mGXLSjIWKwwlTYbVBITePEROMfm4oPDJf5O6J0-uv9vhJpP9jHOcyU0qsYCpRqxUVAu1yTZnqOKhHXI1dw6PKLMXo2EgcWfS5lvX2qsW8fQxWdYJAeGKThwzGM3w09UuqH7F97QQr6C9D5JyI9fk8b1zI03fZid4CZD_-i4uUHjccjLyCmqvvtzu64uNwH75Fh6UyjNs9WnYFjdMSsUou6fv3CT8tipsJcSwvEdrKkafoog3EV_wwfi4LJXIspqRL8hfMBPB-aOde0kKXsJ0fYjCp-x9bfhDbBE5MlmwaMPN63kgVyuhWi6DgzVUxFr4ExZw-GGDDg39D7CMOYd0J3sElxBrDMYhxV?></g></svg>