<?plantuml 1.2026.1?><svg xmlns="http://www.w3.org/2000/svg" xmlns:xlink="http://www.w3.org/1999/xlink" contentStyleType="text/css" data-diagram-type="CLASS" height="401px" preserveAspectRatio="none" style="width:727px;height:401px;background:#FFFFFF;" version="1.1" viewBox="0 0 727 401" width="727px" zoomAndPan="magnify"><defs/><g><!--class PaymentPort--><g class="entity" data-qualified-name="PaymentPort" data-source-line="1" id="ent0002"><rect fill="#F1F1F1" height="48" rx="2.5" ry="2.5" style="stroke:#181818;stroke-width:0.5;" width="122.1729" x="477.79" y="330.45"/><ellipse cx="492.79" cy="346.45" fill="#B4A7E5" rx="11" ry="11" style="stroke:#181818;stroke-width:1;"/><path d="M488.7119,342.2156 L488.7119,340.0594 L496.1025,340.0594 L496.1025,342.2156 L493.6338,342.2156 L493.6338,350.2938 L496.1025,350.2938 L496.1025,352.45 L488.7119,352.45 L488.7119,350.2938 L491.1806,350.2938 L491.1806,342.2156 L488.7119,342.2156 Z " fill="#000000"/><text fill="#000000" font-family="sans-serif" font-size="14" font-style="italic" lengthAdjust="spacing" textLength="90.1729" x="506.79" y="351.2967">PaymentPort</text><line style="stroke:#181818;stroke-width:0.5;" x1="478.79" x2="598.9629" y1="362.45" y2="362.45"/><line style="stroke:#181818;stroke-width:0.5;" x1="478.79" x2="598.9629" y1="370.45" y2="370.45"/></g><!--class Order--><g class="entity" data-qualified-name="Order" data-source-line="3" id="ent0003"><rect fill="#F1F1F1" height="88.8594" rx="2.5" ry="2.5" style="stroke:#181818;stroke-width:0.5;" width="159.8682" x="180.94" y="148.3"/><ellipse cx="206.2113" cy="168.4328" fill="#ADD1B2" rx="11" ry="11" style="stroke:#181818;stroke-width:1;"/><path d="M209.1801,174.0734 Q208.602,174.3703 207.9613,174.5109 Q207.3207,174.6672 206.6176,174.6672 Q204.1176,174.6672 202.7895,173.0266 Q201.477,171.3703 201.477,168.2453 Q201.477,165.1203 202.7895,163.4641 Q204.1176,161.8078 206.6176,161.8078 Q207.3207,161.8078 207.9613,161.9641 Q208.6176,162.1203 209.1801,162.4172 L209.1801,165.1359 Q208.5551,164.5578 207.9613,164.2922 Q207.3676,164.0109 206.7426,164.0109 Q205.3988,164.0109 204.7113,165.0891 Q204.0238,166.1516 204.0238,168.2453 Q204.0238,170.3391 204.7113,171.4172 Q205.3988,172.4797 206.7426,172.4797 Q207.3676,172.4797 207.9613,172.2141 Q208.5551,171.9328 209.1801,171.3547 L209.1801,174.0734 Z " fill="#000000"/><text fill="#000000" font-family="sans-serif" font-size="12" font-style="italic" lengthAdjust="spacing" textLength="109.043" x="220.4939" y="164.4387">&#171;Aggregate Root&#187;</text><text fill="#000000" font-family="sans-serif" font-size="14" lengthAdjust="spacing" textLength="40.0313" x="254.9997" y="180.2639">Order</text><line style="stroke:#181818;stroke-width:0.5;" x1="181.94" x2="339.8082" y1="188.5656" y2="188.5656"/><g data-visibility-modifier="PUBLIC_FIELD"><ellipse cx="191.94" cy="202.2141" fill="none" rx="3" ry="3" style="stroke:#038048;stroke-width:1;"/></g><text fill="#000000" font-family="sans-serif" font-size="14" lengthAdjust="spacing" textLength="133.8682" x="200.94" y="205.5607">orderNumber&#160;&#160;&#160;&#160;&#160;&#160;&#160;&#160;&#160;</text><g data-visibility-modifier="PUBLIC_FIELD"><ellipse cx="191.94" cy="218.5109" fill="none" rx="3" ry="3" style="stroke:#038048;stroke-width:1;"/></g><text fill="#000000" font-family="sans-serif" font-size="14" lengthAdjust="spacing" textLength="67.6143" x="200.94" y="221.8576">total&#160;&#160;&#160;&#160;&#160;&#160;&#160;&#160;</text><line style="stroke:#181818;stroke-width:0.5;" x1="181.94" x2="339.8082" y1="229.1594" y2="229.1594"/></g><!--class SpecialOrder--><g class="entity" data-qualified-name="SpecialOrder" data-source-line="7" id="ent0004"><rect fill="#F1F1F1" height="64.2969" rx="2.5" ry="2.5" style="stroke:#181818;stroke-width:0.5;" width="161.4609" x="180.15" y="7"/><ellipse cx="212.6943" cy="23" fill="#ADD1B2" rx="11" ry="11" style="stroke:#181818;stroke-width:1;"/><path d="M215.663,28.6406 Q215.0849,28.9375 214.4443,29.0781 Q213.8037,29.2344 213.1005,29.2344 Q210.6005,29.2344 209.2724,27.5938 Q207.9599,25.9375 207.9599,22.8125 Q207.9599,19.6875 209.2724,18.0313 Q210.6005,16.375 213.1005,16.375 Q213.8037,16.375 214.4443,16.5313 Q215.1005,16.6875 215.663,16.9844 L215.663,19.7031 Q215.038,19.125 214.4443,18.8594 Q213.8505,18.5781 213.2255,18.5781 Q211.8818,18.5781 211.1943,19.6563 Q210.5068,20.7188 210.5068,22.8125 Q210.5068,24.9063 211.1943,25.9844 Q211.8818,27.0469 213.2255,27.0469 Q213.8505,27.0469 214.4443,26.7813 Q215.038,26.5 215.663,25.9219 L215.663,28.6406 Z " fill="#000000"/><text fill="#000000" font-family="sans-serif" font-size="14" lengthAdjust="spacing" textLength="90.4736" x="230.593" y="27.8467">SpecialOrder</text><line style="stroke:#181818;stroke-width:0.5;" x1="181.15" x2="340.6109" y1="39" y2="39"/><g data-visibility-modifier="PUBLIC_FIELD"><ellipse cx="191.15" cy="52.6484" fill="none" rx="3" ry="3" style="stroke:#038048;stroke-width:1;"/></g><text fill="#000000" font-family="sans-serif" font-size="14" lengthAdjust="spacing" textLength="135.4609" x="200.15" y="55.9951">discountCode&#160;&#160;&#160;&#160;&#160;&#160;&#160;&#160;&#160;</text><line style="stroke:#181818;stroke-width:0.5;" x1="181.15" x2="340.6109" y1="63.2969" y2="63.2969"/></g><!--class Customer--><g class="entity" data-qualified-name="Customer" data-source-line="10" id="ent0005"><rect fill="#F1F1F1" height="64.2969" rx="2.5" ry="2.5" style="stroke:#181818;stroke-width:0.5;" width="105.7549" x="7" y="322.3"/><ellipse cx="24.5879" cy="338.3" fill="#ADD1B2" rx="11" ry="11" style="stroke:#181818;stroke-width:1;"/><path d="M27.5567,343.9406 Q26.9786,344.2375 26.3379,344.3781 Q25.6973,344.5344 24.9942,344.5344 Q22.4942,344.5344 21.1661,342.8938 Q19.8536,341.2375 19.8536,338.1125 Q19.8536,334.9875 21.1661,333.3313 Q22.4942,331.675 24.9942,331.675 Q25.6973,331.675 26.3379,331.8313 Q26.9942,331.9875 27.5567,332.2844 L27.5567,335.0031 Q26.9317,334.425 26.3379,334.1594 Q25.7442,333.8781 25.1192,333.8781 Q23.7754,333.8781 23.0879,334.9563 Q22.4004,336.0188 22.4004,338.1125 Q22.4004,340.2063 23.0879,341.2844 Q23.7754,342.3469 25.1192,342.3469 Q25.7442,342.3469 26.3379,342.0813 Q26.9317,341.8 27.5567,341.2219 L27.5567,343.9406 Z " fill="#000000"/><text fill="#000000" font-family="sans-serif" font-size="14" lengthAdjust="spacing" textLength="68.0039" x="39.163" y="343.1467">Customer</text><line style="stroke:#181818;stroke-width:0.5;" x1="8" x2="111.7549" y1="354.3" y2="354.3"/><g data-visibility-modifier="PUBLIC_FIELD"><ellipse cx="18" cy="367.9484" fill="none" rx="3" ry="3" style="stroke:#038048;stroke-width:1;"/></g><text fill="#000000" font-family="sans-serif" font-size="14" lengthAdjust="spacing" textLength="79.7549" x="27" y="371.2951">name&#160;&#160;&#160;&#160;&#160;&#160;&#160;&#160;&#160;</text><line style="stroke:#181818;stroke-width:0.5;" x1="8" x2="111.7549" y1="378.5969" y2="378.5969"/></g><!--class OrderLine--><g class="entity" data-qualified-name="OrderLine" data-source-line="13" id="ent0006"><rect fill="#F1F1F1" height="64.2969" rx="2.5" ry="2.5" style="stroke:#181818;stroke-width:0.5;" width="111.0664" x="147.34" y="322.3"/><ellipse cx="166.7767" cy="338.3" fill="#ADD1B2" rx="11" ry="11" style="stroke:#181818;stroke-width:1;"/><path d="M169.7455,343.9406 Q169.1673,344.2375 168.5267,344.3781 Q167.8861,344.5344 167.183,344.5344 Q164.683,344.5344 163.3548,342.8938 Q162.0423,341.2375 162.0423,338.1125 Q162.0423,334.9875 163.3548,333.3313 Q164.683,331.675 167.183,331.675 Q167.8861,331.675 168.5267,331.8313 Q169.183,331.9875 169.7455,332.2844 L169.7455,335.0031 Q169.1205,334.425 168.5267,334.1594 Q167.933,333.8781 167.308,333.8781 Q165.9642,333.8781 165.2767,334.9563 Q164.5892,336.0188 164.5892,338.1125 Q164.5892,340.2063 165.2767,341.2844 Q165.9642,342.3469 167.308,342.3469 Q167.933,342.3469 168.5267,342.0813 Q169.1205,341.8 169.7455,341.2219 L169.7455,343.9406 Z " fill="#000000"/><text fill="#000000" font-family="sans-serif" font-size="14" lengthAdjust="spacing" textLength="69.207" x="181.7627" y="343.1467">OrderLine</text><line style="stroke:#181818;stroke-width:0.5;" x1="148.34" x2="257.4064" y1="354.3" y2="354.3"/><g data-visibility-modifier="PUBLIC_FIELD"><ellipse cx="158.34" cy="367.9484" fill="none" rx="3" ry="3" style="stroke:#038048;stroke-width:1;"/></g><text fill="#000000" font-family="sans-serif" font-size="14" lengthAdjust="spacing" textLength="85.0664" x="167.34" y="371.2951">quantity&#160;&#160;&#160;&#160;&#160;&#160;</text><line style="stroke:#181818;stroke-width:0.5;" x1="148.34" x2="257.4064" y1="378.5969" y2="378.5969"/></g><!--class StripePaymentAdapter--><g class="entity" data-qualified-name="StripePaymentAdapter" data-source-line="16" id="ent0007"><rect fill="#F1F1F1" height="64.2969" rx="2.5" ry="2.5" style="stroke:#181818;stroke-width:0.5;" width="286.5518" x="433.6" y="160.58"/><ellipse cx="493.0111" cy="176.58" fill="#ADD1B2" rx="11" ry="11" style="stroke:#181818;stroke-width:1;"/><path d="M495.9799,182.2206 Q495.4018,182.5175 494.7611,182.6581 Q494.1205,182.8144 493.4174,182.8144 Q490.9174,182.8144 489.5893,181.1738 Q488.2768,179.5175 488.2768,176.3925 Q488.2768,173.2675 489.5893,171.6113 Q490.9174,169.955 493.4174,169.955 Q494.1205,169.955 494.7611,170.1113 Q495.4174,170.2675 495.9799,170.5644 L495.9799,173.2831 Q495.3549,172.705 494.7611,172.4394 Q494.1674,172.1581 493.5424,172.1581 Q492.1986,172.1581 491.5111,173.2363 Q490.8236,174.2988 490.8236,176.3925 Q490.8236,178.4863 491.5111,179.5644 Q492.1986,180.6269 493.5424,180.6269 Q494.1674,180.6269 494.7611,180.3613 Q495.3549,180.08 495.9799,179.5019 L495.9799,182.2206 Z " fill="#000000"/><text fill="#000000" font-family="sans-serif" font-size="14" lengthAdjust="spacing" textLength="159.2295" x="513.5111" y="181.4267">StripePaymentAdapter</text><line style="stroke:#181818;stroke-width:0.5;" x1="434.6" x2="719.1518" y1="192.58" y2="192.58"/><line style="stroke:#181818;stroke-width:0.5;" x1="434.6" x2="719.1518" y1="200.58" y2="200.58"/><g data-visibility-modifier="PUBLIC_METHOD"><ellipse cx="444.6" cy="214.2284" fill="#84BE84" rx="3" ry="3" style="stroke:#038048;stroke-width:1;"/></g><text fill="#000000" font-family="sans-serif" font-size="14" lengthAdjust="spacing" textLength="260.5518" x="453.6" y="217.5751">authorize(amount : Money) : boolean</text></g><!--class Money--><g class="entity" data-qualified-name="Money" data-source-line="19" id="ent0008"><rect fill="#F1F1F1" height="80.5938" rx="2.5" ry="2.5" style="stroke:#181818;stroke-width:0.5;" width="127.6025" x="293.08" y="314.16"/><ellipse cx="330.2139" cy="330.16" fill="#ADD1B2" rx="11" ry="11" style="stroke:#181818;stroke-width:1;"/><path d="M333.1827,335.8006 Q332.6046,336.0975 331.9639,336.2381 Q331.3233,336.3944 330.6202,336.3944 Q328.1202,336.3944 326.7921,334.7537 Q325.4796,333.0975 325.4796,329.9725 Q325.4796,326.8475 326.7921,325.1912 Q328.1202,323.535 330.6202,323.535 Q331.3233,323.535 331.9639,323.6912 Q332.6202,323.8475 333.1827,324.1444 L333.1827,326.8631 Q332.5577,326.285 331.9639,326.0194 Q331.3702,325.7381 330.7452,325.7381 Q329.4014,325.7381 328.7139,326.8162 Q328.0264,327.8787 328.0264,329.9725 Q328.0264,332.0662 328.7139,333.1444 Q329.4014,334.2069 330.7452,334.2069 Q331.3702,334.2069 331.9639,333.9412 Q332.5577,333.66 333.1827,333.0819 L333.1827,335.8006 Z " fill="#000000"/><text fill="#000000" font-family="sans-serif" font-size="14" lengthAdjust="spacing" textLength="46.416" x="349.1326" y="335.0067">Money</text><line style="stroke:#181818;stroke-width:0.5;" x1="294.08" x2="419.6825" y1="346.16" y2="346.16"/><g data-visibility-modifier="PUBLIC_FIELD"><ellipse cx="304.08" cy="359.8084" fill="none" rx="3" ry="3" style="stroke:#038048;stroke-width:1;"/></g><text fill="#000000" font-family="sans-serif" font-size="14" lengthAdjust="spacing" textLength="98.5195" x="313.08" y="363.1551">amount&#160;&#160;&#160;&#160;&#160;&#160;&#160;&#160;&#160;&#160;</text><g data-visibility-modifier="PUBLIC_FIELD"><ellipse cx="304.08" cy="376.1053" fill="none" rx="3" ry="3" style="stroke:#038048;stroke-width:1;"/></g><text fill="#000000" font-family="sans-serif" font-size="14" lengthAdjust="spacing" textLength="101.6025" x="313.08" y="379.452">currency&#160;&#160;&#160;&#160;&#160;&#160;&#160;&#160;&#160;</text><line style="stroke:#181818;stroke-width:0.5;" x1="294.08" x2="419.6825" y1="386.7537" y2="386.7537"/></g><!--link SpecialOrder to Order--><g class="link" data-entity-1="ent0004" data-entity-2="ent0003" data-link-type="dependency" data-source-line="25" id="lnk9"><path codeLine="25" d="M260.88,71.56 C260.88,93.67 260.88,117.56 260.88,142" fill="none" id="SpecialOrder-to-Order" style="stroke:#181818;stroke-width:1;"/><polygon fill="#181818" points="260.88,148,264.88,139,260.88,143,256.88,139,260.88,148" style="stroke:#181818;stroke-width:1;"/><text fill="#000000" font-family="sans-serif" font-size="13" lengthAdjust="spacing" textLength="73.4932" x="261.88" y="114.3669">inheritance</text></g><!--link StripePaymentAdapter to PaymentPort--><g class="link" data-entity-1="ent0007" data-entity-2="ent0002" data-link-type="dependency" data-source-line="26" id="lnk10"><path codeLine="26" d="M569.37,225.28 C562.02,256.19 552.3681,296.7328 545.7881,324.4028" fill="none" id="StripePaymentAdapter-to-PaymentPort" style="stroke:#181818;stroke-width:1;"/><polygon fill="#181818" points="544.4,330.24,550.3736,322.4096,545.5568,325.3756,542.5907,320.5588,544.4,330.24" style="stroke:#181818;stroke-width:1;"/><text fill="#000000" font-family="sans-serif" font-size="13" lengthAdjust="spacing" textLength="68.2246" x="560.88" y="280.2269">realization</text></g><!--link Order to PaymentPort--><g class="link" data-entity-1="ent0003" data-entity-2="ent0002" data-link-type="dependency" data-source-line="27" id="lnk11"><path codeLine="27" d="M340.99,235.67 C359.77,245.78 379.62,256.69 397.88,267.16 C433.61,287.64 468.4952,309.0948 496.7352,326.7848" fill="none" id="Order-to-PaymentPort" style="stroke:#181818;stroke-width:1;"/><polygon fill="#181818" points="501.82,329.97,496.3163,321.8024,497.5827,327.3157,492.0694,328.5821,501.82,329.97" style="stroke:#181818;stroke-width:1;"/><text fill="#000000" font-family="sans-serif" font-size="13" lengthAdjust="spacing" textLength="80.0693" x="426.88" y="280.2269">dependency</text></g><!--link Order to OrderLine--><g class="link" data-entity-1="ent0003" data-entity-2="ent0006" data-link-type="dependency" data-source-line="28" id="lnk12"><path codeLine="28" d="M230.27,237.32 C224.74,246.81 219.57,257.04 215.88,267.16 C209.49,284.66 206.8306,299.2991 205.1806,315.9791" fill="none" id="Order-to-OrderLine" style="stroke:#181818;stroke-width:1;"/><polygon fill="#181818" points="204.59,321.95,209.4565,313.3875,205.0822,316.9743,201.4954,312.6,204.59,321.95" style="stroke:#181818;stroke-width:1;"/><text fill="#000000" font-family="sans-serif" font-size="13" lengthAdjust="spacing" textLength="79.2568" x="216.88" y="280.2269">composition</text></g><!--link Order to Customer--><g class="link" data-entity-1="ent0003" data-entity-2="ent0005" data-link-type="dependency" data-source-line="29" id="lnk13"><path codeLine="29" d="M180.61,229.14 C160.94,239.81 140.73,252.6 123.88,267.16 C105.81,282.76 93.0788,299.3086 81.5988,316.9786" fill="none" id="Order-to-Customer" style="stroke:#181818;stroke-width:1;"/><polygon fill="#181818" points="78.33,322.01,86.5875,316.6422,81.054,317.8172,79.879,312.2837,78.33,322.01" style="stroke:#181818;stroke-width:1;"/><text fill="#000000" font-family="sans-serif" font-size="13" lengthAdjust="spacing" textLength="78.9331" x="124.88" y="280.2269">aggregation</text></g><!--link Order to Money--><g class="link" data-entity-1="ent0003" data-entity-2="ent0008" data-link-type="dependency" data-source-line="30" id="lnk14"><path codeLine="30" d="M287.11,237.37 C301.43,261.2 315.9498,285.347 329.8898,308.547" fill="none" id="Order-to-Money" style="stroke:#181818;stroke-width:1;"/><polygon fill="#181818" points="332.98,313.69,331.7733,303.9153,330.4048,309.4042,324.916,308.0357,332.98,313.69" style="stroke:#181818;stroke-width:1;"/><text fill="#000000" font-family="sans-serif" font-size="13" lengthAdjust="spacing" textLength="73.0933" x="315.88" y="280.2269">association</text></g><?plantuml-src XL9BReD03Drp2YzRLRa0Yf2YRFk9sXEOmIKZWKqyPa6gtALdwSdADoq4jPgDfVVy_Fmydetq7Ht10PkIs0wY1X_H9S8qcA8pS0M602-QaS9skyjpfHoDu5N4agJb0Zn8XpxNPKhwzRby7S74iBW1Bj4W_bQHyrWCCth1p0SdDTjUCbfHd1htTJ0ffoR6yYzoB__ecGRsgKOsRysw8rDVqPZ9BiFAfY5Osr7Kd-aEoyuXnF0aJCrzMwGY1I5VLNfWREl9j-w6U5ojIkoQ_zptbvcbjTaa8nI3voEfDsH7qUe27VdtdMDGmiAVqRnmz2CuvsHK4MUTlMWnimyp1YTb9S4lHAwtYG77JpCd3EcqQ0ZIBjIXtm00?></g></svg>