<?plantuml 1.2026.1?><svg xmlns="http://www.w3.org/2000/svg" xmlns:xlink="http://www.w3.org/1999/xlink" contentStyleType="text/css" data-diagram-type="CLASS" height="410px" preserveAspectRatio="none" style="width:209px;height:410px;background:#FFFFFF;" version="1.1" viewBox="0 0 209 410" width="209px" zoomAndPan="magnify"><defs/><g><!--class Warehouse--><g class="entity" data-qualified-name="Warehouse" data-source-line="1" id="ent0002"><rect fill="#F1F1F1" height="84.2969" rx="2.5" ry="2.5" style="stroke:#181818;stroke-width:0.5;" width="157.4414" x="7" y="7"/><ellipse cx="42.8942" cy="23" fill="#ADD1B2" rx="11" ry="11" style="stroke:#181818;stroke-width:1;"/><path d="M45.863,28.6406 Q45.2849,28.9375 44.6442,29.0781 Q44.0036,29.2344 43.3005,29.2344 Q40.8005,29.2344 39.4724,27.5938 Q38.1599,25.9375 38.1599,22.8125 Q38.1599,19.6875 39.4724,18.0313 Q40.8005,16.375 43.3005,16.375 Q44.0036,16.375 44.6442,16.5313 Q45.3005,16.6875 45.863,16.9844 L45.863,19.7031 Q45.238,19.125 44.6442,18.8594 Q44.0505,18.5781 43.4255,18.5781 Q42.0817,18.5781 41.3942,19.6563 Q40.7067,20.7188 40.7067,22.8125 Q40.7067,24.9063 41.3942,25.9844 Q42.0817,27.0469 43.4255,27.0469 Q44.0505,27.0469 44.6442,26.7813 Q45.238,26.5 45.863,25.9219 L45.863,28.6406 Z " fill="#000000"/><text fill="#000000" font-family="sans-serif" font-size="14" lengthAdjust="spacing" textLength="79.0098" x="61.5374" y="27.8467">Warehouse</text><line style="stroke:#181818;stroke-width:0.5;" x1="8" x2="163.4414" y1="39" y2="39"/><g data-visibility-modifier="PUBLIC_FIELD"><ellipse cx="18" cy="52.6484" fill="none" rx="3" ry="3" style="stroke:#038048;stroke-width:1;"/></g><text fill="#000000" font-family="sans-serif" font-size="14" lengthAdjust="spacing" textLength="131.4414" x="27" y="55.9951">locationCode&#160;&#160;&#160;&#160;&#160;&#160;&#160;&#160;&#160;</text><text fill="#000000" font-family="sans-serif" font-size="1" lengthAdjust="spacing" textLength="0.3179" x="27" y="60.2251">&#160;</text><text fill="#000000" font-family="sans-serif" font-size="1" lengthAdjust="spacing" textLength="0.3179" x="27" y="70.2251">&#160;</text><line style="stroke:#181818;stroke-width:0.5;" x1="8" x2="163.4414" y1="83.2969" y2="83.2969"/></g><!--class StorageBin--><g class="entity" data-qualified-name="StorageBin" data-source-line="6" id="ent0003"><rect fill="#F1F1F1" height="84.2969" rx="2.5" ry="2.5" style="stroke:#181818;stroke-width:0.5;" width="109.1436" x="31.15" y="168.3"/><ellipse cx="46.15" cy="184.3" fill="#ADD1B2" rx="11" ry="11" style="stroke:#181818;stroke-width:1;"/><path d="M49.1188,189.9406 Q48.5406,190.2375 47.9,190.3781 Q47.2594,190.5344 46.5563,190.5344 Q44.0563,190.5344 42.7281,188.8937 Q41.4156,187.2375 41.4156,184.1125 Q41.4156,180.9875 42.7281,179.3312 Q44.0563,177.675 46.5563,177.675 Q47.2594,177.675 47.9,177.8312 Q48.5563,177.9875 49.1188,178.2844 L49.1188,181.0031 Q48.4938,180.425 47.9,180.1594 Q47.3063,179.8781 46.6813,179.8781 Q45.3375,179.8781 44.65,180.9562 Q43.9625,182.0187 43.9625,184.1125 Q43.9625,186.2062 44.65,187.2844 Q45.3375,188.3469 46.6813,188.3469 Q47.3063,188.3469 47.9,188.0812 Q48.4938,187.8 49.1188,187.2219 L49.1188,189.9406 Z " fill="#000000"/><text fill="#000000" font-family="sans-serif" font-size="14" lengthAdjust="spacing" textLength="77.1436" x="60.15" y="189.1467">StorageBin</text><line style="stroke:#181818;stroke-width:0.5;" x1="32.15" x2="139.2936" y1="200.3" y2="200.3"/><g data-visibility-modifier="PUBLIC_FIELD"><ellipse cx="42.15" cy="213.9484" fill="none" rx="3" ry="3" style="stroke:#038048;stroke-width:1;"/></g><text fill="#000000" font-family="sans-serif" font-size="14" lengthAdjust="spacing" textLength="73.9102" x="51.15" y="217.2951">label&#160;&#160;&#160;&#160;&#160;&#160;&#160;&#160;&#160;</text><text fill="#000000" font-family="sans-serif" font-size="1" lengthAdjust="spacing" textLength="0.3179" x="51.15" y="221.5251">&#160;</text><text fill="#000000" font-family="sans-serif" font-size="1" lengthAdjust="spacing" textLength="0.3179" x="51.15" y="231.5251">&#160;</text><line style="stroke:#181818;stroke-width:0.5;" x1="32.15" x2="139.2936" y1="244.5969" y2="244.5969"/></g><!--class Pallet--><g class="entity" data-qualified-name="Pallet" data-source-line="11" id="ent0004"><rect fill="#F1F1F1" height="74.2969" rx="2.5" ry="2.5" style="stroke:#181818;stroke-width:0.5;" width="123.0361" x="24.2" y="329.59"/><ellipse cx="62.6598" cy="345.59" fill="#ADD1B2" rx="11" ry="11" style="stroke:#181818;stroke-width:1;"/><path d="M65.6285,351.2306 Q65.0504,351.5275 64.4098,351.6681 Q63.7691,351.8244 63.066,351.8244 Q60.566,351.8244 59.2379,350.1838 Q57.9254,348.5275 57.9254,345.4025 Q57.9254,342.2775 59.2379,340.6213 Q60.566,338.965 63.066,338.965 Q63.7691,338.965 64.4098,339.1213 Q65.066,339.2775 65.6285,339.5744 L65.6285,342.2931 Q65.0035,341.715 64.4098,341.4494 Q63.816,341.1681 63.191,341.1681 Q61.8473,341.1681 61.1598,342.2463 Q60.4723,343.3088 60.4723,345.4025 Q60.4723,347.4963 61.1598,348.5744 Q61.8473,349.6369 63.191,349.6369 Q63.816,349.6369 64.4098,349.3713 Q65.0035,349.09 65.6285,348.5119 L65.6285,351.2306 Z " fill="#000000"/><text fill="#000000" font-family="sans-serif" font-size="14" lengthAdjust="spacing" textLength="38.9033" x="81.873" y="350.4367">Pallet</text><line style="stroke:#181818;stroke-width:0.5;" x1="25.2" x2="146.2361" y1="361.59" y2="361.59"/><g data-visibility-modifier="PUBLIC_FIELD"><ellipse cx="35.2" cy="375.2384" fill="none" rx="3" ry="3" style="stroke:#038048;stroke-width:1;"/></g><text fill="#000000" font-family="sans-serif" font-size="14" lengthAdjust="spacing" textLength="97.0361" x="44.2" y="378.5851">barcode&#160;&#160;&#160;&#160;&#160;&#160;&#160;&#160;&#160;</text><text fill="#000000" font-family="sans-serif" font-size="1" lengthAdjust="spacing" textLength="0.3179" x="44.2" y="382.8151">&#160;</text><line style="stroke:#181818;stroke-width:0.5;" x1="25.2" x2="146.2361" y1="395.8869" y2="395.8869"/></g><!--link Warehouse to StorageBin--><g class="link" data-entity-1="ent0002" data-entity-2="ent0003" data-link-type="dependency" data-source-line="15" id="lnk5"><path codeLine="15" d="M85.72,91.59 C85.72,115.09 85.72,138.42 85.72,161.94" fill="none" id="Warehouse-to-StorageBin" style="stroke:#181818;stroke-width:1;"/><polygon fill="#181818" points="85.72,167.94,89.72,158.94,85.72,162.94,81.72,158.94,85.72,167.94" style="stroke:#181818;stroke-width:1;"/><text fill="#000000" font-family="sans-serif" font-size="13" lengthAdjust="spacing" textLength="114.8354" x="86.72" y="134.3669">partOfWarehouse</text></g><!--link StorageBin to Pallet--><g class="link" data-entity-1="ent0003" data-entity-2="ent0004" data-link-type="dependency" data-source-line="16" id="lnk6"><path codeLine="16" d="M85.72,252.79 C85.72,276.63 85.72,300.32 85.72,323.28" fill="none" id="StorageBin-to-Pallet" style="stroke:#181818;stroke-width:1;"/><polygon fill="#181818" points="85.72,329.28,89.72,320.28,85.72,324.28,81.72,320.28,85.72,329.28" style="stroke:#181818;stroke-width:1;"/><text fill="#000000" font-family="sans-serif" font-size="13" lengthAdjust="spacing" textLength="79.9868" x="86.72" y="295.6569">packedInBin</text></g><?plantuml-src Iyv9B2vM24yiIit8BorELQZcKb3GpibFJYp9pCzppaz9FRG07G9Ls1HdLgLQ6TefsEY3M7ROX6gvai5c1vVa5oMcfpfbva4DJqnApQ7Or834d9pK4eY9IOb5oKIxj9OBuLbTNJjavraf52GMbVYdmHLm8Kc2r48j1QbBpavDySm3IW00?></g></svg>