<?plantuml 1.2026.1?><svg xmlns="http://www.w3.org/2000/svg" xmlns:xlink="http://www.w3.org/1999/xlink" contentStyleType="text/css" data-diagram-type="CLASS" height="418px" preserveAspectRatio="none" style="width:734px;height:418px;background:#FFFFFF;" version="1.1" viewBox="0 0 734 418" width="734px" zoomAndPan="magnify"><defs/><g><!--class PaymentPort--><g class="entity" data-qualified-name="PaymentPort" data-source-line="1" id="ent0002"><rect fill="#F1F1F1" height="48" rx="2.5" ry="2.5" style="stroke:#181818;stroke-width:0.5;" width="122.1729" x="480.79" y="346.75"/><ellipse cx="495.79" cy="362.75" fill="#B4A7E5" rx="11" ry="11" style="stroke:#181818;stroke-width:1;"/><path d="M491.7119,358.5156 L491.7119,356.3594 L499.1025,356.3594 L499.1025,358.5156 L496.6338,358.5156 L496.6338,366.5938 L499.1025,366.5938 L499.1025,368.75 L491.7119,368.75 L491.7119,366.5938 L494.1806,366.5938 L494.1806,358.5156 L491.7119,358.5156 Z " fill="#000000"/><text fill="#000000" font-family="sans-serif" font-size="14" font-style="italic" lengthAdjust="spacing" textLength="90.1729" x="509.79" y="367.5967">PaymentPort</text><line style="stroke:#181818;stroke-width:0.5;" x1="481.79" x2="601.9629" y1="378.75" y2="378.75"/><line style="stroke:#181818;stroke-width:0.5;" x1="481.79" x2="601.9629" y1="386.75" y2="386.75"/></g><!--class Order--><g class="entity" data-qualified-name="Order" data-source-line="3" id="ent0003"><rect fill="#F1F1F1" height="105.1563" rx="2.5" ry="2.5" style="stroke:#181818;stroke-width:0.5;" width="159.8682" x="184.94" y="148.3"/><ellipse cx="210.2113" cy="168.4328" fill="#ADD1B2" rx="11" ry="11" style="stroke:#181818;stroke-width:1;"/><path d="M213.1801,174.0734 Q212.602,174.3703 211.9613,174.5109 Q211.3207,174.6672 210.6176,174.6672 Q208.1176,174.6672 206.7895,173.0266 Q205.477,171.3703 205.477,168.2453 Q205.477,165.1203 206.7895,163.4641 Q208.1176,161.8078 210.6176,161.8078 Q211.3207,161.8078 211.9613,161.9641 Q212.6176,162.1203 213.1801,162.4172 L213.1801,165.1359 Q212.5551,164.5578 211.9613,164.2922 Q211.3676,164.0109 210.7426,164.0109 Q209.3988,164.0109 208.7113,165.0891 Q208.0238,166.1516 208.0238,168.2453 Q208.0238,170.3391 208.7113,171.4172 Q209.3988,172.4797 210.7426,172.4797 Q211.3676,172.4797 211.9613,172.2141 Q212.5551,171.9328 213.1801,171.3547 L213.1801,174.0734 Z " fill="#000000"/><text fill="#000000" font-family="sans-serif" font-size="12" font-style="italic" lengthAdjust="spacing" textLength="109.043" x="224.4939" y="164.4387">&#171;Aggregate Root&#187;</text><text fill="#000000" font-family="sans-serif" font-size="14" lengthAdjust="spacing" textLength="40.0313" x="258.9997" y="180.2639">Order</text><line style="stroke:#181818;stroke-width:0.5;" x1="185.94" x2="343.8082" y1="188.5656" y2="188.5656"/><g data-visibility-modifier="PUBLIC_FIELD"><ellipse cx="195.94" cy="202.2141" fill="none" rx="3" ry="3" style="stroke:#038048;stroke-width:1;"/></g><text fill="#000000" font-family="sans-serif" font-size="14" lengthAdjust="spacing" textLength="133.8682" x="204.94" y="205.5607">orderNumber&#160;&#160;&#160;&#160;&#160;&#160;&#160;&#160;&#160;</text><g data-visibility-modifier="PUBLIC_FIELD"><ellipse cx="195.94" cy="218.5109" fill="none" rx="3" ry="3" style="stroke:#038048;stroke-width:1;"/></g><text fill="#000000" font-family="sans-serif" font-size="14" lengthAdjust="spacing" textLength="67.6143" x="204.94" y="221.8576">total&#160;&#160;&#160;&#160;&#160;&#160;&#160;&#160;</text><g data-visibility-modifier="PUBLIC_FIELD"><ellipse cx="195.94" cy="234.8078" fill="none" rx="3" ry="3" style="stroke:#038048;stroke-width:1;"/></g><text fill="#000000" font-family="sans-serif" font-size="14" lengthAdjust="spacing" textLength="96.7285" x="204.94" y="238.1545">&lt;size&#160;&#160;&#160;&#160;&#160;&#160;&#160;&#160;&#160;&#160;&#160;&#160;&#160;</text><line style="stroke:#181818;stroke-width:0.5;" x1="185.94" x2="343.8082" y1="245.4563" y2="245.4563"/></g><!--class SpecialOrder--><g class="entity" data-qualified-name="SpecialOrder" data-source-line="8" id="ent0004"><rect fill="#F1F1F1" height="64.2969" rx="2.5" ry="2.5" style="stroke:#181818;stroke-width:0.5;" width="161.4609" x="184.15" y="7"/><ellipse cx="216.6943" cy="23" fill="#ADD1B2" rx="11" ry="11" style="stroke:#181818;stroke-width:1;"/><path d="M219.663,28.6406 Q219.0849,28.9375 218.4443,29.0781 Q217.8037,29.2344 217.1005,29.2344 Q214.6005,29.2344 213.2724,27.5938 Q211.9599,25.9375 211.9599,22.8125 Q211.9599,19.6875 213.2724,18.0313 Q214.6005,16.375 217.1005,16.375 Q217.8037,16.375 218.4443,16.5313 Q219.1005,16.6875 219.663,16.9844 L219.663,19.7031 Q219.038,19.125 218.4443,18.8594 Q217.8505,18.5781 217.2255,18.5781 Q215.8818,18.5781 215.1943,19.6563 Q214.5068,20.7188 214.5068,22.8125 Q214.5068,24.9063 215.1943,25.9844 Q215.8818,27.0469 217.2255,27.0469 Q217.8505,27.0469 218.4443,26.7813 Q219.038,26.5 219.663,25.9219 L219.663,28.6406 Z " fill="#000000"/><text fill="#000000" font-family="sans-serif" font-size="14" lengthAdjust="spacing" textLength="90.4736" x="234.593" y="27.8467">SpecialOrder</text><line style="stroke:#181818;stroke-width:0.5;" x1="185.15" x2="344.6109" y1="39" y2="39"/><g data-visibility-modifier="PUBLIC_FIELD"><ellipse cx="195.15" cy="52.6484" fill="none" rx="3" ry="3" style="stroke:#038048;stroke-width:1;"/></g><text fill="#000000" font-family="sans-serif" font-size="14" lengthAdjust="spacing" textLength="135.4609" x="204.15" y="55.9951">discountCode&#160;&#160;&#160;&#160;&#160;&#160;&#160;&#160;&#160;</text><line style="stroke:#181818;stroke-width:0.5;" x1="185.15" x2="344.6109" y1="63.2969" y2="63.2969"/></g><!--class Customer--><g class="entity" data-qualified-name="Customer" data-source-line="11" id="ent0005"><rect fill="#F1F1F1" height="64.2969" rx="2.5" ry="2.5" style="stroke:#181818;stroke-width:0.5;" width="105.7549" x="7" y="338.6"/><ellipse cx="24.5879" cy="354.6" fill="#ADD1B2" rx="11" ry="11" style="stroke:#181818;stroke-width:1;"/><path d="M27.5567,360.2406 Q26.9786,360.5375 26.3379,360.6781 Q25.6973,360.8344 24.9942,360.8344 Q22.4942,360.8344 21.1661,359.1938 Q19.8536,357.5375 19.8536,354.4125 Q19.8536,351.2875 21.1661,349.6313 Q22.4942,347.975 24.9942,347.975 Q25.6973,347.975 26.3379,348.1313 Q26.9942,348.2875 27.5567,348.5844 L27.5567,351.3031 Q26.9317,350.725 26.3379,350.4594 Q25.7442,350.1781 25.1192,350.1781 Q23.7754,350.1781 23.0879,351.2563 Q22.4004,352.3188 22.4004,354.4125 Q22.4004,356.5063 23.0879,357.5844 Q23.7754,358.6469 25.1192,358.6469 Q25.7442,358.6469 26.3379,358.3813 Q26.9317,358.1 27.5567,357.5219 L27.5567,360.2406 Z " fill="#000000"/><text fill="#000000" font-family="sans-serif" font-size="14" lengthAdjust="spacing" textLength="68.0039" x="39.163" y="359.4467">Customer</text><line style="stroke:#181818;stroke-width:0.5;" x1="8" x2="111.7549" y1="370.6" y2="370.6"/><g data-visibility-modifier="PUBLIC_FIELD"><ellipse cx="18" cy="384.2484" fill="none" rx="3" ry="3" style="stroke:#038048;stroke-width:1;"/></g><text fill="#000000" font-family="sans-serif" font-size="14" lengthAdjust="spacing" textLength="79.7549" x="27" y="387.5951">name&#160;&#160;&#160;&#160;&#160;&#160;&#160;&#160;&#160;</text><line style="stroke:#181818;stroke-width:0.5;" x1="8" x2="111.7549" y1="394.8969" y2="394.8969"/></g><!--class OrderLine--><g class="entity" data-qualified-name="OrderLine" data-source-line="14" id="ent0006"><rect fill="#F1F1F1" height="64.2969" rx="2.5" ry="2.5" style="stroke:#181818;stroke-width:0.5;" width="111.0664" x="147.34" y="338.6"/><ellipse cx="166.7767" cy="354.6" fill="#ADD1B2" rx="11" ry="11" style="stroke:#181818;stroke-width:1;"/><path d="M169.7455,360.2406 Q169.1673,360.5375 168.5267,360.6781 Q167.8861,360.8344 167.183,360.8344 Q164.683,360.8344 163.3548,359.1938 Q162.0423,357.5375 162.0423,354.4125 Q162.0423,351.2875 163.3548,349.6313 Q164.683,347.975 167.183,347.975 Q167.8861,347.975 168.5267,348.1313 Q169.183,348.2875 169.7455,348.5844 L169.7455,351.3031 Q169.1205,350.725 168.5267,350.4594 Q167.933,350.1781 167.308,350.1781 Q165.9642,350.1781 165.2767,351.2563 Q164.5892,352.3188 164.5892,354.4125 Q164.5892,356.5063 165.2767,357.5844 Q165.9642,358.6469 167.308,358.6469 Q167.933,358.6469 168.5267,358.3813 Q169.1205,358.1 169.7455,357.5219 L169.7455,360.2406 Z " fill="#000000"/><text fill="#000000" font-family="sans-serif" font-size="14" lengthAdjust="spacing" textLength="69.207" x="181.7627" y="359.4467">OrderLine</text><line style="stroke:#181818;stroke-width:0.5;" x1="148.34" x2="257.4064" y1="370.6" y2="370.6"/><g data-visibility-modifier="PUBLIC_FIELD"><ellipse cx="158.34" cy="384.2484" fill="none" rx="3" ry="3" style="stroke:#038048;stroke-width:1;"/></g><text fill="#000000" font-family="sans-serif" font-size="14" lengthAdjust="spacing" textLength="85.0664" x="167.34" y="387.5951">quantity&#160;&#160;&#160;&#160;&#160;&#160;</text><line style="stroke:#181818;stroke-width:0.5;" x1="148.34" x2="257.4064" y1="394.8969" y2="394.8969"/></g><!--class StripePaymentAdapter--><g class="entity" data-qualified-name="StripePaymentAdapter" data-source-line="17" id="ent0007"><rect fill="#F1F1F1" height="64.2969" rx="2.5" ry="2.5" style="stroke:#181818;stroke-width:0.5;" width="286.5518" x="440.6" y="168.73"/><ellipse cx="500.0111" cy="184.73" fill="#ADD1B2" rx="11" ry="11" style="stroke:#181818;stroke-width:1;"/><path d="M502.9799,190.3706 Q502.4018,190.6675 501.7611,190.8081 Q501.1205,190.9644 500.4174,190.9644 Q497.9174,190.9644 496.5893,189.3238 Q495.2768,187.6675 495.2768,184.5425 Q495.2768,181.4175 496.5893,179.7613 Q497.9174,178.105 500.4174,178.105 Q501.1205,178.105 501.7611,178.2613 Q502.4174,178.4175 502.9799,178.7144 L502.9799,181.4331 Q502.3549,180.855 501.7611,180.5894 Q501.1674,180.3081 500.5424,180.3081 Q499.1986,180.3081 498.5111,181.3863 Q497.8236,182.4488 497.8236,184.5425 Q497.8236,186.6363 498.5111,187.7144 Q499.1986,188.7769 500.5424,188.7769 Q501.1674,188.7769 501.7611,188.5113 Q502.3549,188.23 502.9799,187.6519 L502.9799,190.3706 Z " fill="#000000"/><text fill="#000000" font-family="sans-serif" font-size="14" lengthAdjust="spacing" textLength="159.2295" x="520.5111" y="189.5767">StripePaymentAdapter</text><line style="stroke:#181818;stroke-width:0.5;" x1="441.6" x2="726.1518" y1="200.73" y2="200.73"/><line style="stroke:#181818;stroke-width:0.5;" x1="441.6" x2="726.1518" y1="208.73" y2="208.73"/><g data-visibility-modifier="PUBLIC_METHOD"><ellipse cx="451.6" cy="222.3784" fill="#84BE84" rx="3" ry="3" style="stroke:#038048;stroke-width:1;"/></g><text fill="#000000" font-family="sans-serif" font-size="14" lengthAdjust="spacing" textLength="260.5518" x="460.6" y="225.7251">authorize(amount : Money) : boolean</text></g><!--class Money--><g class="entity" data-qualified-name="Money" data-source-line="20" id="ent0008"><rect fill="#F1F1F1" height="80.5938" rx="2.5" ry="2.5" style="stroke:#181818;stroke-width:0.5;" width="127.6025" x="293.08" y="330.46"/><ellipse cx="330.2139" cy="346.46" fill="#ADD1B2" rx="11" ry="11" style="stroke:#181818;stroke-width:1;"/><path d="M333.1827,352.1006 Q332.6046,352.3975 331.9639,352.5381 Q331.3233,352.6944 330.6202,352.6944 Q328.1202,352.6944 326.7921,351.0538 Q325.4796,349.3975 325.4796,346.2725 Q325.4796,343.1475 326.7921,341.4913 Q328.1202,339.835 330.6202,339.835 Q331.3233,339.835 331.9639,339.9913 Q332.6202,340.1475 333.1827,340.4444 L333.1827,343.1631 Q332.5577,342.585 331.9639,342.3194 Q331.3702,342.0381 330.7452,342.0381 Q329.4014,342.0381 328.7139,343.1163 Q328.0264,344.1788 328.0264,346.2725 Q328.0264,348.3663 328.7139,349.4444 Q329.4014,350.5069 330.7452,350.5069 Q331.3702,350.5069 331.9639,350.2413 Q332.5577,349.96 333.1827,349.3819 L333.1827,352.1006 Z " fill="#000000"/><text fill="#000000" font-family="sans-serif" font-size="14" lengthAdjust="spacing" textLength="46.416" x="349.1326" y="351.3067">Money</text><line style="stroke:#181818;stroke-width:0.5;" x1="294.08" x2="419.6825" y1="362.46" y2="362.46"/><g data-visibility-modifier="PUBLIC_FIELD"><ellipse cx="304.08" cy="376.1084" fill="none" rx="3" ry="3" style="stroke:#038048;stroke-width:1;"/></g><text fill="#000000" font-family="sans-serif" font-size="14" lengthAdjust="spacing" textLength="98.5195" x="313.08" y="379.4551">amount&#160;&#160;&#160;&#160;&#160;&#160;&#160;&#160;&#160;&#160;</text><g data-visibility-modifier="PUBLIC_FIELD"><ellipse cx="304.08" cy="392.4053" fill="none" rx="3" ry="3" style="stroke:#038048;stroke-width:1;"/></g><text fill="#000000" font-family="sans-serif" font-size="14" lengthAdjust="spacing" textLength="101.6025" x="313.08" y="395.752">currency&#160;&#160;&#160;&#160;&#160;&#160;&#160;&#160;&#160;</text><line style="stroke:#181818;stroke-width:0.5;" x1="294.08" x2="419.6825" y1="403.0538" y2="403.0538"/></g><!--link SpecialOrder to Order--><g class="link" data-entity-1="ent0004" data-entity-2="ent0003" data-link-type="dependency" data-source-line="26" id="lnk9"><path codeLine="26" d="M264.88,71.71 C264.88,93.44 264.88,116.81 264.88,141.95" fill="none" id="SpecialOrder-to-Order" style="stroke:#181818;stroke-width:1;"/><polygon fill="#181818" points="264.88,147.95,268.88,138.95,264.88,142.95,260.88,138.95,264.88,147.95" style="stroke:#181818;stroke-width:1;"/><text fill="#000000" font-family="sans-serif" font-size="13" lengthAdjust="spacing" textLength="73.4932" x="265.88" y="114.3669">inheritance</text></g><!--link StripePaymentAdapter to PaymentPort--><g class="link" data-entity-1="ent0007" data-entity-2="ent0002" data-link-type="dependency" data-source-line="27" id="lnk10"><path codeLine="27" d="M575.98,233.45 C567.76,266.32 556.5266,311.1895 549.1666,340.5995" fill="none" id="StripePaymentAdapter-to-PaymentPort" style="stroke:#181818;stroke-width:1;"/><polygon fill="#181818" points="547.71,346.42,553.7753,338.6603,548.9238,341.5696,546.0146,336.7182,547.71,346.42" style="stroke:#181818;stroke-width:1;"/><text fill="#000000" font-family="sans-serif" font-size="13" lengthAdjust="spacing" textLength="68.2246" x="563.88" y="296.5269">realization</text></g><!--link Order to PaymentPort--><g class="link" data-entity-1="ent0003" data-entity-2="ent0002" data-link-type="dependency" data-source-line="28" id="lnk11"><path codeLine="28" d="M345.25,247.17 C365.47,258.81 387.06,271.44 406.88,283.46 C441.01,304.15 474.2742,325.4826 501.3242,343.1226" fill="none" id="Order-to-PaymentPort" style="stroke:#181818;stroke-width:1;"/><polygon fill="#181818" points="506.35,346.4,500.9963,338.1333,502.1619,343.6688,496.6264,344.8344,506.35,346.4" style="stroke:#181818;stroke-width:1;"/><text fill="#000000" font-family="sans-serif" font-size="13" lengthAdjust="spacing" textLength="80.0693" x="434.88" y="296.5269">dependency</text></g><!--link Order to OrderLine--><g class="link" data-entity-1="ent0003" data-entity-2="ent0006" data-link-type="dependency" data-source-line="29" id="lnk12"><path codeLine="29" d="M229.57,253.92 C224.31,263.43 219.46,273.51 215.88,283.46 C209.57,300.99 206.9177,315.6298 205.2477,332.3098" fill="none" id="Order-to-OrderLine" style="stroke:#181818;stroke-width:1;"/><polygon fill="#181818" points="204.65,338.28,209.5267,329.7233,205.1481,333.3049,201.5665,328.9263,204.65,338.28" style="stroke:#181818;stroke-width:1;"/><text fill="#000000" font-family="sans-serif" font-size="13" lengthAdjust="spacing" textLength="79.2568" x="216.88" y="296.5269">composition</text></g><!--link Order to Customer--><g class="link" data-entity-1="ent0003" data-entity-2="ent0005" data-link-type="dependency" data-source-line="30" id="lnk13"><path codeLine="30" d="M184.56,240.81 C163.64,252.91 141.92,267.36 123.88,283.46 C106.2,299.23 93.6064,315.5767 82.0864,333.0967" fill="none" id="Order-to-Customer" style="stroke:#181818;stroke-width:1;"/><polygon fill="#181818" points="78.79,338.11,87.0769,332.7876,81.537,333.9322,80.3924,328.3924,78.79,338.11" style="stroke:#181818;stroke-width:1;"/><text fill="#000000" font-family="sans-serif" font-size="13" lengthAdjust="spacing" textLength="78.9331" x="124.88" y="296.5269">aggregation</text></g><!--link Order to Money--><g class="link" data-entity-1="ent0003" data-entity-2="ent0008" data-link-type="dependency" data-source-line="31" id="lnk14"><path codeLine="31" d="M293.23,253.62 C306.75,278.28 319.7771,302.048 332.3071,324.918" fill="none" id="Order-to-Money" style="stroke:#181818;stroke-width:1;"/><polygon fill="#181818" points="335.19,330.18,334.3736,320.365,332.7875,325.795,327.3576,324.209,335.19,330.18" style="stroke:#181818;stroke-width:1;"/><text fill="#000000" font-family="sans-serif" font-size="13" lengthAdjust="spacing" textLength="80.812" x="317.88" y="296.5269">totalAmount</text></g><?plantuml-src XP9DReD038NtdCBBLbKkW11Ib6r_elO4pk2IaS0c7hCWLUxIi_HaXO6a3KMfPZFI-so_UMFFHlgEZc2BNKriMr63Z-IKu2wOeZDm5OO0BrgGGfQjorAfH2Du5R4yxrc01ndKvxRUaNvzpiy0c1XMIq8M_97-rboGKpBEVsl8UQn66t5cuOEJbcqZ1TqetBJ1f3uNCTQtuDZ-qJEDzA55Dc_TiYDJtz0Ksxh0niv3iBMzQF-kEwm7Xv32ap1rz_rb9r8HygLB5AQo22-cqAkkLILstN_ku-TTfRLQvPEKWkSzgJTaHydY0mRuzogae8ILFw9vuUIduJLJK4DS3FQIsSmOPWfEwaQ2dpMv_4qAEEtLDJ2caq9SdtNCvni0?></g></svg>