<?plantuml 1.2026.1?><svg xmlns="http://www.w3.org/2000/svg" xmlns:xlink="http://www.w3.org/1999/xlink" contentStyleType="text/css" data-diagram-type="CLASS" height="401px" preserveAspectRatio="none" style="width:728px;height:401px;background:#FFFFFF;" version="1.1" viewBox="0 0 728 401" width="728px" zoomAndPan="magnify"><defs/><g><!--class PaymentPort--><g class="entity" data-qualified-name="PaymentPort" data-source-line="2" id="ent0002"><rect fill="#F1F1F1" height="48" rx="2.5" ry="2.5" style="stroke:#181818;stroke-width:0.5;" width="122.1729" x="476.66" y="330.45"/><ellipse cx="491.66" cy="346.45" fill="#B4A7E5" rx="11" ry="11" style="stroke:#181818;stroke-width:1;"/><path d="M487.5819,342.2156 L487.5819,340.0594 L494.9725,340.0594 L494.9725,342.2156 L492.5038,342.2156 L492.5038,350.2938 L494.9725,350.2938 L494.9725,352.45 L487.5819,352.45 L487.5819,350.2938 L490.0506,350.2938 L490.0506,342.2156 L487.5819,342.2156 Z " fill="#000000"/><text fill="#000000" font-family="sans-serif" font-size="14" font-style="italic" lengthAdjust="spacing" textLength="90.1729" x="505.66" y="351.2967">PaymentPort</text><line style="stroke:#181818;stroke-width:0.5;" x1="477.66" x2="597.8329" y1="362.45" y2="362.45"/><line style="stroke:#181818;stroke-width:0.5;" x1="477.66" x2="597.8329" y1="370.45" y2="370.45"/></g><!--class Order--><g class="entity" data-qualified-name="Order" data-source-line="4" id="ent0003"><rect fill="#F1F1F1" height="88.8594" rx="2.5" ry="2.5" style="stroke:#181818;stroke-width:0.5;" width="157.5986" x="182.94" y="148.3"/><ellipse cx="207.19" cy="168.4328" fill="#ADD1B2" rx="11" ry="11" style="stroke:#181818;stroke-width:1;"/><path d="M210.1588,174.0734 Q209.5807,174.3703 208.94,174.5109 Q208.2994,174.6672 207.5963,174.6672 Q205.0963,174.6672 203.7682,173.0266 Q202.4557,171.3703 202.4557,168.2453 Q202.4557,165.1203 203.7682,163.4641 Q205.0963,161.8078 207.5963,161.8078 Q208.2994,161.8078 208.94,161.9641 Q209.5963,162.1203 210.1588,162.4172 L210.1588,165.1359 Q209.5338,164.5578 208.94,164.2922 Q208.3463,164.0109 207.7213,164.0109 Q206.3775,164.0109 205.69,165.0891 Q205.0025,166.1516 205.0025,168.2453 Q205.0025,170.3391 205.69,171.4172 Q206.3775,172.4797 207.7213,172.4797 Q208.3463,172.4797 208.94,172.2141 Q209.5338,171.9328 210.1588,171.3547 L210.1588,174.0734 Z " fill="#000000"/><text fill="#000000" font-family="sans-serif" font-size="12" font-style="italic" lengthAdjust="spacing" textLength="109.043" x="221.2456" y="164.4387">&#171;Aggregate Root&#187;</text><text fill="#000000" font-family="sans-serif" font-size="14" lengthAdjust="spacing" textLength="40.0313" x="255.7515" y="180.2639">Order</text><line style="stroke:#181818;stroke-width:0.5;" x1="183.94" x2="339.5386" y1="188.5656" y2="188.5656"/><text fill="#000000" font-family="sans-serif" font-size="14" lengthAdjust="spacing" textLength="145.5986" x="188.94" y="205.5607">+orderNumber&#160;&#160;&#160;&#160;&#160;&#160;&#160;&#160;&#160;</text><text fill="#000000" font-family="sans-serif" font-size="14" lengthAdjust="spacing" textLength="79.3447" x="188.94" y="221.8576">+total&#160;&#160;&#160;&#160;&#160;&#160;&#160;&#160;</text><line style="stroke:#181818;stroke-width:0.5;" x1="183.94" x2="339.5386" y1="229.1594" y2="229.1594"/></g><!--class SpecialOrder--><g class="entity" data-qualified-name="SpecialOrder" data-source-line="8" id="ent0004"><rect fill="#F1F1F1" height="64.2969" rx="2.5" ry="2.5" style="stroke:#181818;stroke-width:0.5;" width="159.1914" x="182.15" y="7"/><ellipse cx="213.673" cy="23" fill="#ADD1B2" rx="11" ry="11" style="stroke:#181818;stroke-width:1;"/><path d="M216.6417,28.6406 Q216.0636,28.9375 215.423,29.0781 Q214.7824,29.2344 214.0792,29.2344 Q211.5792,29.2344 210.2511,27.5938 Q208.9386,25.9375 208.9386,22.8125 Q208.9386,19.6875 210.2511,18.0313 Q211.5792,16.375 214.0792,16.375 Q214.7824,16.375 215.423,16.5313 Q216.0792,16.6875 216.6417,16.9844 L216.6417,19.7031 Q216.0167,19.125 215.423,18.8594 Q214.8292,18.5781 214.2042,18.5781 Q212.8605,18.5781 212.173,19.6563 Q211.4855,20.7188 211.4855,22.8125 Q211.4855,24.9063 212.173,25.9844 Q212.8605,27.0469 214.2042,27.0469 Q214.8292,27.0469 215.423,26.7813 Q216.0167,26.5 216.6417,25.9219 L216.6417,28.6406 Z " fill="#000000"/><text fill="#000000" font-family="sans-serif" font-size="14" lengthAdjust="spacing" textLength="90.4736" x="231.3448" y="27.8467">SpecialOrder</text><line style="stroke:#181818;stroke-width:0.5;" x1="183.15" x2="340.3414" y1="39" y2="39"/><text fill="#000000" font-family="sans-serif" font-size="14" lengthAdjust="spacing" textLength="147.1914" x="188.15" y="55.9951">+discountCode&#160;&#160;&#160;&#160;&#160;&#160;&#160;&#160;&#160;</text><line style="stroke:#181818;stroke-width:0.5;" x1="183.15" x2="340.3414" y1="63.2969" y2="63.2969"/></g><!--class Customer--><g class="entity" data-qualified-name="Customer" data-source-line="11" id="ent0005"><rect fill="#F1F1F1" height="64.2969" rx="2.5" ry="2.5" style="stroke:#181818;stroke-width:0.5;" width="103.4854" x="7" y="322.3"/><ellipse cx="23.5667" cy="338.3" fill="#ADD1B2" rx="11" ry="11" style="stroke:#181818;stroke-width:1;"/><path d="M26.5354,343.9406 Q25.9573,344.2375 25.3167,344.3781 Q24.676,344.5344 23.9729,344.5344 Q21.4729,344.5344 20.1448,342.8938 Q18.8323,341.2375 18.8323,338.1125 Q18.8323,334.9875 20.1448,333.3313 Q21.4729,331.675 23.9729,331.675 Q24.676,331.675 25.3167,331.8313 Q25.9729,331.9875 26.5354,332.2844 L26.5354,335.0031 Q25.9104,334.425 25.3167,334.1594 Q24.7229,333.8781 24.0979,333.8781 Q22.7542,333.8781 22.0667,334.9563 Q21.3792,336.0188 21.3792,338.1125 Q21.3792,340.2063 22.0667,341.2844 Q22.7542,342.3469 24.0979,342.3469 Q24.7229,342.3469 25.3167,342.0813 Q25.9104,341.8 26.5354,341.2219 L26.5354,343.9406 Z " fill="#000000"/><text fill="#000000" font-family="sans-serif" font-size="14" lengthAdjust="spacing" textLength="68.0039" x="37.9148" y="343.1467">Customer</text><line style="stroke:#181818;stroke-width:0.5;" x1="8" x2="109.4854" y1="354.3" y2="354.3"/><text fill="#000000" font-family="sans-serif" font-size="14" lengthAdjust="spacing" textLength="91.4854" x="13" y="371.2951">+name&#160;&#160;&#160;&#160;&#160;&#160;&#160;&#160;&#160;</text><line style="stroke:#181818;stroke-width:0.5;" x1="8" x2="109.4854" y1="378.5969" y2="378.5969"/></g><!--class OrderLine--><g class="entity" data-qualified-name="OrderLine" data-source-line="14" id="ent0006"><rect fill="#F1F1F1" height="64.2969" rx="2.5" ry="2.5" style="stroke:#181818;stroke-width:0.5;" width="108.7969" x="145.34" y="322.3"/><ellipse cx="163.7554" cy="338.3" fill="#ADD1B2" rx="11" ry="11" style="stroke:#181818;stroke-width:1;"/><path d="M166.7242,343.9406 Q166.1461,344.2375 165.5054,344.3781 Q164.8648,344.5344 164.1617,344.5344 Q161.6617,344.5344 160.3336,342.8938 Q159.0211,341.2375 159.0211,338.1125 Q159.0211,334.9875 160.3336,333.3313 Q161.6617,331.675 164.1617,331.675 Q164.8648,331.675 165.5054,331.8313 Q166.1617,331.9875 166.7242,332.2844 L166.7242,335.0031 Q166.0992,334.425 165.5054,334.1594 Q164.9117,333.8781 164.2867,333.8781 Q162.9429,333.8781 162.2554,334.9563 Q161.5679,336.0188 161.5679,338.1125 Q161.5679,340.2063 162.2554,341.2844 Q162.9429,342.3469 164.2867,342.3469 Q164.9117,342.3469 165.5054,342.0813 Q166.0992,341.8 166.7242,341.2219 L166.7242,343.9406 Z " fill="#000000"/><text fill="#000000" font-family="sans-serif" font-size="14" lengthAdjust="spacing" textLength="69.207" x="178.5144" y="343.1467">OrderLine</text><line style="stroke:#181818;stroke-width:0.5;" x1="146.34" x2="253.1369" y1="354.3" y2="354.3"/><text fill="#000000" font-family="sans-serif" font-size="14" lengthAdjust="spacing" textLength="96.7969" x="151.34" y="371.2951">+quantity&#160;&#160;&#160;&#160;&#160;&#160;</text><line style="stroke:#181818;stroke-width:0.5;" x1="146.34" x2="253.1369" y1="378.5969" y2="378.5969"/></g><!--class StripePaymentAdapter--><g class="entity" data-qualified-name="StripePaymentAdapter" data-source-line="17" id="ent0007"><rect fill="#F1F1F1" height="64.2969" rx="2.5" ry="2.5" style="stroke:#181818;stroke-width:0.5;" width="284.2822" x="437.6" y="160.58"/><ellipse cx="495.8764" cy="176.58" fill="#ADD1B2" rx="11" ry="11" style="stroke:#181818;stroke-width:1;"/><path d="M498.8451,182.2206 Q498.267,182.5175 497.6264,182.6581 Q496.9857,182.8144 496.2826,182.8144 Q493.7826,182.8144 492.4545,181.1738 Q491.142,179.5175 491.142,176.3925 Q491.142,173.2675 492.4545,171.6113 Q493.7826,169.955 496.2826,169.955 Q496.9857,169.955 497.6264,170.1113 Q498.2826,170.2675 498.8451,170.5644 L498.8451,173.2831 Q498.2201,172.705 497.6264,172.4394 Q497.0326,172.1581 496.4076,172.1581 Q495.0639,172.1581 494.3764,173.2363 Q493.6889,174.2988 493.6889,176.3925 Q493.6889,178.4863 494.3764,179.5644 Q495.0639,180.6269 496.4076,180.6269 Q497.0326,180.6269 497.6264,180.3613 Q498.2201,180.08 498.8451,179.5019 L498.8451,182.2206 Z " fill="#000000"/><text fill="#000000" font-family="sans-serif" font-size="14" lengthAdjust="spacing" textLength="159.2295" x="516.3764" y="181.4267">StripePaymentAdapter</text><line style="stroke:#181818;stroke-width:0.5;" x1="438.6" x2="720.8822" y1="192.58" y2="192.58"/><line style="stroke:#181818;stroke-width:0.5;" x1="438.6" x2="720.8822" y1="200.58" y2="200.58"/><text fill="#000000" font-family="sans-serif" font-size="14" lengthAdjust="spacing" textLength="272.2822" x="443.6" y="217.5751">+authorize(amount : Money) : boolean</text></g><!--class Money--><g class="entity" data-qualified-name="Money" data-source-line="20" id="ent0008"><rect fill="#F1F1F1" height="80.5938" rx="2.5" ry="2.5" style="stroke:#181818;stroke-width:0.5;" width="125.333" x="289.08" y="314.16"/><ellipse cx="325.1926" cy="330.16" fill="#ADD1B2" rx="11" ry="11" style="stroke:#181818;stroke-width:1;"/><path d="M328.1614,335.8006 Q327.5833,336.0975 326.9426,336.2381 Q326.302,336.3944 325.5989,336.3944 Q323.0989,336.3944 321.7708,334.7537 Q320.4583,333.0975 320.4583,329.9725 Q320.4583,326.8475 321.7708,325.1912 Q323.0989,323.535 325.5989,323.535 Q326.302,323.535 326.9426,323.6912 Q327.5989,323.8475 328.1614,324.1444 L328.1614,326.8631 Q327.5364,326.285 326.9426,326.0194 Q326.3489,325.7381 325.7239,325.7381 Q324.3801,325.7381 323.6926,326.8162 Q323.0051,327.8787 323.0051,329.9725 Q323.0051,332.0662 323.6926,333.1444 Q324.3801,334.2069 325.7239,334.2069 Q326.3489,334.2069 326.9426,333.9412 Q327.5364,333.66 328.1614,333.0819 L328.1614,335.8006 Z " fill="#000000"/><text fill="#000000" font-family="sans-serif" font-size="14" lengthAdjust="spacing" textLength="46.416" x="343.8843" y="335.0067">Money</text><line style="stroke:#181818;stroke-width:0.5;" x1="290.08" x2="413.413" y1="346.16" y2="346.16"/><text fill="#000000" font-family="sans-serif" font-size="14" lengthAdjust="spacing" textLength="110.25" x="295.08" y="363.1551">+amount&#160;&#160;&#160;&#160;&#160;&#160;&#160;&#160;&#160;&#160;</text><text fill="#000000" font-family="sans-serif" font-size="14" lengthAdjust="spacing" textLength="113.333" x="295.08" y="379.452">+currency&#160;&#160;&#160;&#160;&#160;&#160;&#160;&#160;&#160;</text><line style="stroke:#181818;stroke-width:0.5;" x1="290.08" x2="413.413" y1="386.7537" y2="386.7537"/></g><!--link SpecialOrder to Order--><g class="link" data-entity-1="ent0004" data-entity-2="ent0003" data-link-type="dependency" data-source-line="26" id="lnk9"><path codeLine="26" d="M261.74,71.56 C261.74,93.67 261.74,117.56 261.74,142" fill="none" id="SpecialOrder-to-Order" style="stroke:#181818;stroke-width:1;"/><polygon fill="#181818" points="261.74,148,265.74,139,261.74,143,257.74,139,261.74,148" style="stroke:#181818;stroke-width:1;"/><text fill="#000000" font-family="sans-serif" font-size="13" lengthAdjust="spacing" textLength="73.4932" x="262.74" y="114.3669">inheritance</text></g><!--link StripePaymentAdapter to PaymentPort--><g class="link" data-entity-1="ent0007" data-entity-2="ent0002" data-link-type="dependency" data-source-line="27" id="lnk10"><path codeLine="27" d="M571.44,225.28 C563.32,256.19 552.6447,296.767 545.3747,324.437" fill="none" id="StripePaymentAdapter-to-PaymentPort" style="stroke:#181818;stroke-width:1;"/><polygon fill="#181818" points="543.85,330.24,550.0057,322.5519,545.1206,325.4041,542.2683,320.519,543.85,330.24" style="stroke:#181818;stroke-width:1;"/><text fill="#000000" font-family="sans-serif" font-size="13" lengthAdjust="spacing" textLength="68.2246" x="561.74" y="280.2269">realization</text></g><!--link Order to PaymentPort--><g class="link" data-entity-1="ent0003" data-entity-2="ent0002" data-link-type="dependency" data-source-line="28" id="lnk11"><path codeLine="28" d="M340.72,233.29 C361.12,243.93 382.91,255.69 402.74,267.16 C437.54,287.28 471.0597,308.8638 498.0197,326.7438" fill="none" id="Order-to-PaymentPort" style="stroke:#181818;stroke-width:1;"/><polygon fill="#181818" points="503.02,330.06,497.7304,321.7522,498.8531,327.2965,493.3088,328.4192,503.02,330.06" style="stroke:#181818;stroke-width:1;"/><text fill="#000000" font-family="sans-serif" font-size="13" lengthAdjust="spacing" textLength="80.0693" x="430.74" y="280.2269">dependency</text></g><!--link Order to OrderLine--><g class="link" data-entity-1="ent0003" data-entity-2="ent0006" data-link-type="dependency" data-source-line="29" id="lnk12"><path codeLine="29" d="M227.32,237.34 C221.28,246.74 215.68,256.94 211.74,267.16 C205.05,284.52 202.5032,299.1395 201.1532,315.8495" fill="none" id="Order-to-OrderLine" style="stroke:#181818;stroke-width:1;"/><polygon fill="#181818" points="200.67,321.83,205.3818,313.1813,201.0726,316.8462,197.4077,312.5371,200.67,321.83" style="stroke:#181818;stroke-width:1;"/><text fill="#000000" font-family="sans-serif" font-size="13" lengthAdjust="spacing" textLength="79.2568" x="212.74" y="280.2269">composition</text></g><!--link Order to Customer--><g class="link" data-entity-1="ent0003" data-entity-2="ent0005" data-link-type="dependency" data-source-line="30" id="lnk13"><path codeLine="30" d="M182.71,226.18 C160.95,237.27 138.27,251.03 119.74,267.16 C102.03,282.58 89.9068,299.0292 79.0868,316.7492" fill="none" id="Order-to-Customer" style="stroke:#181818;stroke-width:1;"/><polygon fill="#181818" points="75.96,321.87,84.0641,316.2733,78.5657,317.6026,77.2364,312.1042,75.96,321.87" style="stroke:#181818;stroke-width:1;"/><text fill="#000000" font-family="sans-serif" font-size="13" lengthAdjust="spacing" textLength="78.9331" x="120.74" y="280.2269">aggregation</text></g><!--link Order to Money--><g class="link" data-entity-1="ent0003" data-entity-2="ent0008" data-link-type="dependency" data-source-line="31" id="lnk14"><path codeLine="31" d="M286.34,237.37 C299.76,261.2 313.325,285.2625 326.395,308.4625" fill="none" id="Order-to-Money" style="stroke:#181818;stroke-width:1;"/><polygon fill="#181818" points="329.34,313.69,328.4075,303.8854,326.8858,309.3337,321.4375,307.812,329.34,313.69" style="stroke:#181818;stroke-width:1;"/><text fill="#000000" font-family="sans-serif" font-size="13" lengthAdjust="spacing" textLength="80.812" x="313.74" y="280.2269">totalAmount</text></g><?plantuml-src XL9BJiCm4Dtx5BC4eKgiewfIr1KIdugUOE8ChKKy4-pn8aMz2sVXP2HEMcYfGDvOUfzvVkFuwhZ5W1viWp6Mgi5LIUdE2g_TZk3ME5OABsW9LjXvObr9K7WtUuDLr81MHoqyXPe2pEVbPXDeWqhmBAABHSy5k941VKo-el3vSNu6WefYymlOcz5ytP9rs8mpic7jefN4kfIQBZWUXCiKLVn1nEZ_8cVxUySqijyIiZhjBYVggsffwgIiiTN344owbT2tTuL-I0W5F0XJTzrVAf66a8yk6PXacVmxtLYFJI4Gs-w_z7ap9stDPei9Ai3nbe9JP4lcuWC6yiyz5n086xT3TSBcs_2KKrDBN0_npDdCN6O1LdmhqPsP77TJ04wVvfGmjbD0_XjbxkSB?></g></svg>